<svg xmlns="http://www.w3.org/2000/svg">
  <symbol id="atomic__add-contact-o" viewBox="0 0 24 24">
    <path d="M19.5 9.5h-2V7H15V5h2.5V2.5h2V5H22v2h-2.5v2.5zm-12 .5c0-1.098.902-2 2-2 1.098 0 2 .902 2 2 0 1.098-.902 2-2 2-1.098 0-2-.902-2-2zm2-4c-2.203 0-4 1.797-4 4 0 2.203 1.797 4 4 4 2.203 0 4-1.797 4-4 0-2.203-1.797-4-4-4zM4 20.2c0-.447.295-1.053 1.23-1.598.925-.54 2.364-.935 4.27-.935 1.906 0 3.345.395 4.27.935.935.545 1.23 1.151 1.23 1.599V21h2v-.8c0-1.407-.924-2.568-2.222-3.326-1.31-.764-3.121-1.207-5.278-1.207-2.157 0-3.968.443-5.278 1.207C2.924 17.632 2 18.793 2 20.201V21h2v-.8z"/>
  </symbol>
  <symbol id="atomic__add-contact" viewBox="0 0 24 24">
    <path d="M22 7h-2.5v2.5h-2V7H15V5h2.5V2.5h2V5H22v2zM5.5 10c0-2.203 1.797-4 4-4 2.203 0 4 1.797 4 4 0 2.203-1.797 4-4 4-2.203 0-4-1.797-4-4zM4 21H2v-.8c0-1.407.924-2.568 2.222-3.326 1.31-.764 3.121-1.207 5.278-1.207 2.157 0 3.968.443 5.278 1.207 1.298.758 2.222 1.919 2.222 3.327V21H4z"/>
  </symbol>
  <symbol id="atomic__add-section-o" viewBox="0 0 24 24">
    <path d="M4.556 4A.556.556 0 0 0 4 4.556v3.888c0 .307.249.556.556.556h3.888A.556.556 0 0 0 9 8.444V4.556A.556.556 0 0 0 8.444 4H4.556zM2 4.556A2.556 2.556 0 0 1 4.556 2h3.888A2.556 2.556 0 0 1 11 4.556v3.888A2.556 2.556 0 0 1 8.444 11H4.556A2.556 2.556 0 0 1 2 8.444V4.556zM4.556 15a.556.556 0 0 0-.556.556v3.888c0 .307.249.556.556.556h3.888A.556.556 0 0 0 9 19.444v-3.888A.556.556 0 0 0 8.444 15H4.556zM2 15.556A2.556 2.556 0 0 1 4.556 13h3.888A2.556 2.556 0 0 1 11 15.556v3.888A2.556 2.556 0 0 1 8.444 22H4.556A2.556 2.556 0 0 1 2 19.444v-3.888zm13-11c0-.307.249-.556.556-.556h3.888c.307 0 .556.249.556.556v3.888a.556.556 0 0 1-.556.556h-3.888A.556.556 0 0 1 15 8.444V4.556zM15.556 2A2.556 2.556 0 0 0 13 4.556v3.888A2.556 2.556 0 0 0 15.556 11h3.888A2.556 2.556 0 0 0 22 8.444V4.556A2.556 2.556 0 0 0 19.444 2h-3.888zm.944 14.5V13h2v3.5H22v2h-3.5V22h-2v-3.5H13v-2h3.5z"/>
  </symbol>
  <symbol id="atomic__add-section" viewBox="0 0 24 24">
    <path d="M2 4.556A2.556 2.556 0 0 1 4.556 2h3.888A2.556 2.556 0 0 1 11 4.556v3.888A2.556 2.556 0 0 1 8.444 11H4.556A2.556 2.556 0 0 1 2 8.444V4.556zm0 11A2.556 2.556 0 0 1 4.556 13h3.888A2.556 2.556 0 0 1 11 15.556v3.888A2.556 2.556 0 0 1 8.444 22H4.556A2.556 2.556 0 0 1 2 19.444v-3.888zM15.556 2A2.556 2.556 0 0 0 13 4.556v3.888A2.556 2.556 0 0 0 15.556 11h3.888A2.556 2.556 0 0 0 22 8.444V4.556A2.556 2.556 0 0 0 19.444 2h-3.888zm.944 14.5V13h2v3.5H22v2h-3.5V22h-2v-3.5H13v-2h3.5z"/>
  </symbol>
  <symbol id="atomic__arrow-down-o" viewBox="0 0 24 24">
    <path d="m9.847 15.315-4.898-5.306L6.051 8.99l4.898 5.306a.75.75 0 0 0 1.102 0l4.898-5.306 1.102 1.018-4.897 5.306a2.25 2.25 0 0 1-3.307 0z"/>
  </symbol>
  <symbol id="atomic__arrow-down" viewBox="0 0 24 24">
    <path d="m9.663 15.484-4.897-5.306 1.47-1.356 4.897 5.306a.501.501 0 0 0 .735 0l4.898-5.306 1.47 1.356-4.899 5.306a2.499 2.499 0 0 1-3.674 0z"/>
  </symbol>
  <symbol id="atomic__arrow-left-o" viewBox="0 0 24 24">
    <path d="m7.293 11.29 8-7.997 1.414 1.414-7.293 7.29 7.293 7.296-1.414 1.414-8-8.003a1 1 0 0 1 0-1.415z"/>
  </symbol>
  <symbol id="atomic__arrow-left" viewBox="0 0 24 24">
    <path d="m7.116 11.113 8-7.997 1.768 1.768-7.116 7.113 7.116 7.12-1.768 1.767-8-8.004a1.25 1.25 0 0 1 0-1.767z"/>
  </symbol>
  <symbol id="atomic__arrow-right-o" viewBox="0 0 24 24">
    <path d="m16.414 12.71-8.003 8.003L6.997 19.3l7.296-7.296-7.296-7.296L8.41 3.293l8.003 8.003a1 1 0 0 1 0 1.414z"/>
  </symbol>
  <symbol id="atomic__arrow-right" viewBox="0 0 24 24">
    <path stroke-linejoin="round" stroke-width="2.5" d="m7.704 20.006 8.003-8.003L7.704 4"/>
  </symbol>
  <symbol id="atomic__attachment-o" viewBox="0 0 24 24">
    <path d="M6 6.397C6 3.986 7.925 2 10.336 2c2.413 0 4.336 1.986 4.336 4.397v9.411c0 1.47-1.174 2.692-2.66 2.692-1.487 0-2.662-1.223-2.662-2.692v-9.25h2v9.25c0 .399.313.692.662.692.347 0 .66-.293.66-.692V6.397C12.672 5.056 11.61 4 10.336 4 9.063 4 8 5.056 8 6.397v9.37C8 18.081 9.842 20 12 20s4-1.92 4-4.233V8.265h2v7.502C18 19.078 15.366 22 12 22s-6-2.922-6-6.233v-9.37z"/>
  </symbol>
  <symbol id="atomic__attachment" viewBox="0 0 24 24">
    <path d="M5.75 6.397c0-2.545 2.033-4.647 4.586-4.647 2.555 0 4.586 2.102 4.586 4.647v9.411c0 1.603-1.282 2.942-2.91 2.942-1.63 0-2.912-1.339-2.912-2.942v-9.25h2.5v9.25c0 .265.205.442.412.442.204 0 .41-.176.41-.442V6.397c0-1.207-.954-2.147-2.086-2.147-1.13 0-2.086.94-2.086 2.147v9.37c0 2.189 1.743 3.983 3.75 3.983 2.007 0 3.75-1.794 3.75-3.983V8.265h2.5v7.502c0 3.436-2.733 6.483-6.25 6.483s-6.25-3.047-6.25-6.483v-9.37z"/>
  </symbol>
  <symbol id="atomic__avatar-o" viewBox="0 0 24 24">
    <path d="M8 8c0-2.199 1.801-4 4-4s4 1.801 4 4-1.801 4-4 4-4-1.801-4-4zm4-6C8.697 2 6 4.697 6 8s2.697 6 6 6 6-2.697 6-6-2.697-6-6-6zM4 20.894c0-.805.529-1.75 1.894-2.547C7.25 17.557 9.312 17 12 17c2.688 0 4.751.557 6.106 1.347C19.47 19.143 20 20.089 20 20.894V22h2v-1.106c0-1.765-1.158-3.266-2.886-4.275C17.374 15.605 14.938 15 12 15c-2.938 0-5.375.605-7.114 1.62C3.158 17.627 2 19.127 2 20.893V22h2v-1.106z"/>
  </symbol>
  <symbol id="atomic__avatar" viewBox="0 0 24 24">
    <path d="M12 2C9.249 2 7 4.249 7 7s2.249 5 5 5 5-2.249 5-5-2.249-5-5-5zM2.25 21c0 .414.336.75.75.75h18a.75.75 0 0 0 .75-.75v-1.106c0-3.27-4.07-5.644-9.75-5.644s-9.75 2.374-9.75 5.644V21z"/>
  </symbol>
  <symbol id="atomic__bell-o" viewBox="0 0 24 24">
    <path d="M13.25 1v2.103c.123.019.227.037.304.052l.111.021.032.007.01.002h.004l-.211.978.211-.977.013.002C17.12 3.97 19 6.928 19 10.27v4.407l1.695 1.638a1 1 0 0 1 .305.719V18a1 1 0 0 1-1 1h-5a3 3 0 1 1-6 0H4a1 1 0 0 1-1-1v-.966c0-.271.11-.53.305-.72L5 14.678V10.27c0-3.35 1.868-6.3 5.277-7.082l.01-.002.027.122.185.85-.211-.972h.002l.003-.001.01-.002.032-.007.11-.021a8.71 8.71 0 0 1 .305-.052V1h2.5zM11 19a1 1 0 0 0 2 0h-2zm2.284-13.86-.017-.004-.08-.015a5.75 5.75 0 0 0-.3-.05A6.378 6.378 0 0 0 12 5a6.419 6.419 0 0 0-1.188.121l-.08.015-.016.004C8.389 5.676 7 7.67 7 10.27v4.832c0 .27-.11.53-.305.719L5.475 17h13.05l-1.22-1.18a.997.997 0 0 1-.305-.718V10.27c0-2.589-1.398-4.594-3.716-5.13z"/>
  </symbol>
  <symbol id="atomic__bell" viewBox="0 0 24 24">
    <path d="M13.25 3.106V1h-2.5v2.106c-.103.016-.191.032-.258.044l-.107.021-.03.006-.01.002h-.003l-.001.001-.008.002c-3.274.75-5.083 3.581-5.083 6.838v4.513l-1.771 1.711a.754.754 0 0 0-.229.54v.966c0 .414.336.75.75.75h16a.75.75 0 0 0 .75-.75v-.966a.754.754 0 0 0-.229-.54l-1.77-1.71V10.02c0-3.248-1.82-6.088-5.083-6.838l-.01-.002h-.003l-.01-.003-.03-.006-.107-.02a7.003 7.003 0 0 0-.258-.045zM14.5 20a2.5 2.5 0 0 1-5 0h5z"/>
  </symbol>
  <symbol id="atomic__blog-o" viewBox="0 0 24 24">
    <path d="M2 5a2 2 0 0 1 2-2h12a2 2 0 0 1 2 2v13c0 .397.122.625.25.752s.357.248.75.248.622-.12.75-.248c.128-.127.25-.355.25-.752V8h2v10c0 .83-.27 1.603-.838 2.169-.568.566-1.34.831-2.162.831H5.933C3.73 21 2 19.126 2 17V5zm14.143 14A3.44 3.44 0 0 1 16 18V5H4v12c0 1.086.898 2 1.933 2h10.21zm-1.876-5H6v-2h8.267v2zM6 10h8V8H6v2z"/>
  </symbol>
  <symbol id="atomic__blog" viewBox="0 0 24 24">
    <path d="M2 4a1 1 0 0 1 1-1h14a1 1 0 0 1 1 1v14c0 .397.122.625.25.752s.357.248.75.248.622-.12.75-.248c.128-.127.25-.355.25-.752V8h2v10c0 .83-.27 1.603-.838 2.169-.568.566-1.34.831-2.162.831H5.934C3.73 21 2 19.126 2 17V4zm12.267 9H6v-2h8.267v2zM6 9h8V7H6v2z"/>
  </symbol>
  <symbol id="atomic__building-o" viewBox="0 0 24 24">
    <path stroke-width="2" d="M18 21V4c0-.552-.449-1-1.001-1H7c-.55 0-1 .448-1 1v17m-3 0h18M6 7h12M6 12h12"/>
    <path stroke-width="2" d="M11 19v-2h2v2h-2z"/>
  </symbol>
  <symbol id="atomic__building" viewBox="0 0 24 24">
    <path d="M5 4a2 2 0 0 1 2.001-2H17a2 2 0 0 1 2 2v2H5V4zm0 4v3h14V8H5zm14 5H5v7H3v2h18v-2h-2v-7zm-9 3.5a.5.5 0 0 1 .5-.5h3a.5.5 0 0 1 .5.5V20h-4v-3.5z"/>
  </symbol>
  <symbol id="atomic__calendar-day-o" viewBox="0 0 24 24">
    <path d="M7.235 4C5.394 4 4 5.396 4 7v10c0 1.604 1.394 3 3.235 3h9.53C18.606 20 20 18.604 20 17V7c0-1.604-1.394-3-3.235-3h-9.53zM2 7c0-2.815 2.399-5 5.235-5h9.53C19.602 2 22 4.185 22 7v10c0 2.814-2.398 5-5.235 5h-9.53C4.4 22 2 19.814 2 17V7zm13 1H9V6h6v2zm-1.5 3a1 1 0 0 0-1.515-.858l-2.5 1.5 1.03 1.716.985-.592V17.5h2V11z"/>
  </symbol>
  <symbol id="atomic__calendar-day" viewBox="0 0 24 24">
    <path d="M7.235 2C4.4 2 2 4.185 2 7v10c0 2.814 2.399 5 5.235 5h9.53C19.602 22 22 19.814 22 17V7c0-2.815-2.398-5-5.235-5h-9.53zM15 8H9V6h6v2zm-2.007 2.13a1 1 0 0 1 .507.87v6.5h-2v-4.734l-.986.591-1.028-1.714 2.5-1.5a1 1 0 0 1 1.007-.013z"/>
  </symbol>
  <symbol id="atomic__calendar-o" viewBox="0 0 24 24">
    <path d="M4 7c0-1.604 1.394-3 3.235-3h9.53C18.606 4 20 5.396 20 7v3H4V7zm0 5h4v3H4v-3zm6 3v-3h4v3h-4zm4 2h-4v3h4v-3zm2 3h.765C18.606 20 20 18.604 20 17h-4v3zm0-5v-3h4v3h-4zM4 17h4v3h-.765C5.394 20 4 18.604 4 17zM7.235 2C4.4 2 2 4.185 2 7v10c0 2.814 2.399 5 5.235 5h9.53C19.602 22 22 19.814 22 17V7c0-2.815-2.398-5-5.235-5h-9.53zM9 8h6V6H9v2z"/>
  </symbol>
  <symbol id="atomic__calendar" viewBox="0 0 24 24">
    <path d="M7.235 2C4.4 2 2 4.185 2 7v3h20V7c0-2.815-2.398-5-5.235-5h-9.53zM2 16v-4h5v4H2zm7 0v-4h6v4H9zm6 2H9v4h6v-4zm2 3.995c2.39-.102 4.423-1.753 4.896-3.995H17v3.995zM17 16v-4h5v4h-5zM2.104 18H7v3.995C4.61 21.893 2.577 20.242 2.104 18zM9 7h6V5H9v2z"/>
    <path d="M7.235 2C4.4 2 2 4.185 2 7v3h20V7c0-2.815-2.398-5-5.235-5h-9.53zM22 12h-5v4h5v-4zm-.104 6H17v3.995c2.39-.102 4.423-1.753 4.896-3.995zM15 22v-4H9v4h6zm-8-.005V18H2.104C2.577 20.242 4.61 21.893 7 21.995zM2 16h5v-4H2v4zm7-9h6V5H9v2zm0 5h6v4H9v-4z"/>
  </symbol>
  <symbol id="atomic__camera-o" viewBox="0 0 24 24">
    <path d="M9.281 5.717c.257-.424.417-.57.51-.63.068-.043.169-.087.455-.087h3.508c.286 0 .387.044.454.087.094.06.254.206.51.63l.017.027 1.887 2.721h2.398a.98.98 0 0 1 .98.98v9.075a.98.98 0 0 1-.98.98H4.98a.98.98 0 0 1-.98-.98V9.445a.98.98 0 0 1 .98-.98h2.397l1.888-2.72.016-.028zM10.246 3c-.507 0-1.029.08-1.53.4-.466.298-.816.74-1.13 1.255l-1.255 1.81H4.98A2.98 2.98 0 0 0 2 9.445v9.075a2.98 2.98 0 0 0 2.98 2.98h14.04A2.98 2.98 0 0 0 22 18.52V9.445a2.98 2.98 0 0 0-2.98-2.98h-1.352l-1.255-1.81c-.313-.514-.663-.957-1.13-1.254-.5-.32-1.022-.401-1.529-.401h-3.508zM9 13.5a3 3 0 1 1 6 0 3 3 0 0 1-6 0zm3-5a5 5 0 1 0 .001 10.001A5 5 0 0 0 12 8.5z"/>
  </symbol>
  <symbol id="atomic__camera" viewBox="0 0 24 24">
    <path d="M10.246 3c-.507 0-1.029.08-1.53.4-.466.298-.816.74-1.13 1.255l-1.255 1.81H4.98A2.98 2.98 0 0 0 2 9.445v9.075a2.98 2.98 0 0 0 2.98 2.98h14.04A2.98 2.98 0 0 0 22 18.52V9.445a2.98 2.98 0 0 0-2.98-2.98h-1.352l-1.255-1.81c-.313-.514-.663-.957-1.13-1.254-.5-.32-1.022-.401-1.529-.401h-3.508zM9 13.5a3 3 0 1 1 6 0 3 3 0 0 1-6 0zm3-5a5 5 0 1 0 .001 10.001A5 5 0 0 0 12 8.5z"/>
    <path d="M10.246 3c-.507 0-1.029.08-1.53.4-.466.298-.816.74-1.13 1.255l-1.255 1.81H4.98A2.98 2.98 0 0 0 2 9.445v9.075a2.98 2.98 0 0 0 2.98 2.98h14.04A2.98 2.98 0 0 0 22 18.52V9.445a2.98 2.98 0 0 0-2.98-2.98h-1.352l-1.255-1.81c-.313-.514-.663-.957-1.13-1.254-.5-.32-1.022-.401-1.529-.401h-3.508zM9 13.5a3 3 0 1 1 6 0 3 3 0 0 1-6 0zm3-5a5 5 0 1 0 .001 10.001A5 5 0 0 0 12 8.5z"/>
  </symbol>
  <symbol id="atomic__cards-o" viewBox="0 0 24 24">
    <mask id="atomic__bz030998ga">
      <rect width="20" height="12" x="2" y="9.5" rx="1.5"/>
    </mask>
    <rect width="20" height="12" x="2" y="9.5" stroke-width="4" mask="url(#atomic__bz030998ga)" rx="1.5"/>
    <path stroke-width="2" d="M4 7h16M6 3.5h12"/>
  </symbol>
  <symbol id="atomic__cards" viewBox="0 0 24 24">
    <path d="M6 4.5h12v-2H6v2zM20 8H4V6h16v2zM2 11a1.5 1.5 0 0 1 1.5-1.5h17A1.5 1.5 0 0 1 22 11v9a1.5 1.5 0 0 1-1.5 1.5h-17A1.5 1.5 0 0 1 2 20v-9z"/>
  </symbol>
  <symbol id="atomic__cart-o" viewBox="0 0 24 24">
    <path d="M3.405 5H2V3h1.405A3 3 0 0 1 6.32 5.293L8.19 13H18.3l1.558-6.26 1.94.484-1.652 6.638A1.5 1.5 0 0 1 18.69 15H7.797a1.5 1.5 0 0 1-1.458-1.146l-1.963-8.09A1 1 0 0 0 3.405 5zM8 20a1 1 0 1 0 0-2 1 1 0 0 0 0 2zm3-1a3 3 0 1 1-6 0 3 3 0 0 1 6 0zm8 0a1 1 0 1 1-2 0 1 1 0 0 1 2 0zm-1 3a3 3 0 1 0 0-6 3 3 0 0 0 0 6z"/>
  </symbol>
  <symbol id="atomic__cart" viewBox="0 0 24 24">
    <path d="M2 5h1.405a1 1 0 0 1 .971.764l2.046 8.434c.115.47.536.802 1.02.802h11.6a1.05 1.05 0 0 0 1.019-.796l1.723-6.918a1.051 1.051 0 0 0-1.02-1.304H6.488l-.167-.69A3.002 3.002 0 0 0 3.405 3H2v2zm6 16a2 2 0 1 0 .001-3.999A2 2 0 0 0 8 21zm9 0a2 2 0 1 0 .001-3.999A2 2 0 0 0 17 21z"/>
  </symbol>
  <symbol id="atomic__chat-o" viewBox="0 0 24 24">
    <path d="M9.766 22.06a.742.742 0 0 1-.604.218.766.766 0 0 1-.67-.845l-.052-2.605a.92.92 0 0 0-.92-.901A5.52 5.52 0 0 1 2 12.407V8.281a6 6 0 0 1 6-6h8a6 6 0 0 1 6 6v3.645a6 6 0 0 1-6 6h-2.228a1 1 0 0 0-.759.348L9.766 22.06zm.617-3.791 1.113-1.296a2.998 2.998 0 0 1 2.276-1.046H16a4 4 0 0 0 4-4V8.282c0-2.21-1.79-4-4-4H8c-2.21 0-4 1.79-4 4v4.124a3.52 3.52 0 0 0 3.52 3.52 2.92 2.92 0 0 1 2.863 2.343z"/>
  </symbol>
  <symbol id="atomic__chat" viewBox="0 0 24 24">
    <path d="M8 2.282a6 6 0 0 0-6 6v4.124c0 3.05 2.471 5.52 5.52 5.52a.92.92 0 0 1 .92.902l.052 2.604a.766.766 0 0 0 .67.846.74.74 0 0 0 .604-.219l3.247-3.784a1 1 0 0 1 .76-.348H16a6 6 0 0 0 6-6V8.282a6 6 0 0 0-6-6H8z"/>
  </symbol>
  <symbol id="atomic__check-o" viewBox="0 0 24 24">
    <path d="m19.72 8.694-8.681 9a1 1 0 0 1-1.364.072l-4.319-3.631 1.287-1.531 3.605 3.03 8.032-8.328 1.44 1.388z"/>
  </symbol>
  <symbol id="atomic__check" viewBox="0 0 24 24">
    <path d="M22 12c0 5.523-4.477 10-10 10S2 17.523 2 12 6.477 2 12 2s10 4.477 10 10zm-10.786 3.31 6.067-6.29-1.08-1.04-5.58 5.785-2.638-2.218-.966 1.148 3.175 2.669a.75.75 0 0 0 1.022-.054z"/>
  </symbol>
  <symbol id="atomic__clock-o" viewBox="0 0 24 24">
    <path stroke-width="2" d="M12 21a9 9 0 1 0-.001-18.001A9 9 0 0 0 12 21z"/>
    <path stroke-width="2" d="M11.444 7v5.597l2.483 2.483"/>
  </symbol>
  <symbol id="atomic__clock" viewBox="0 0 24 24">
    <path d="M12 2C6.477 2 2 6.477 2 12s4.477 10 10 10 10-4.477 10-10S17.523 2 12 2zm.444 5h-2v6.011l2.776 2.776 1.414-1.414-2.19-2.19V7z"/>
  </symbol>
  <symbol id="atomic__config-o" viewBox="0 0 24 24">
    <path d="m21.316 10.271-3.152-5.516A3.483 3.483 0 0 0 15.14 3H8.862c-1.25 0-2.405.67-3.025 1.755l-3.152 5.516a3.484 3.484 0 0 0 0 3.457l3.152 5.517A3.482 3.482 0 0 0 8.862 21h6.277c1.25 0 2.405-.67 3.025-1.755l3.152-5.517a3.484 3.484 0 0 0 0-3.457zm-1.736 2.465c.26-.456.26-1.016 0-1.472l-3.152-5.516A1.484 1.484 0 0 0 15.139 5H8.862c-.533 0-1.025.285-1.289.748l-3.152 5.516a1.486 1.486 0 0 0 0 1.472l3.152 5.516c.264.463.756.748 1.289.748h6.277c.533 0 1.024-.285 1.289-.748l3.152-5.516zM15 12a3 3 0 1 1-6 0 3 3 0 0 1 6 0zm2 0a5 5 0 1 1-10 0 5 5 0 0 1 10 0z"/>
  </symbol>
  <symbol id="atomic__config" viewBox="0 0 24 24">
    <path d="m21.316 10.271-3.152-5.516A3.483 3.483 0 0 0 15.14 3H8.862c-1.25 0-2.405.67-3.025 1.755l-3.152 5.516a3.484 3.484 0 0 0 0 3.457l3.152 5.517A3.482 3.482 0 0 0 8.862 21h6.277c1.25 0 2.405-.67 3.025-1.755l3.152-5.517a3.484 3.484 0 0 0 0-3.457zM12 16c2.21 0 4-1.79 4-4s-1.79-4-4-4a4 4 0 1 0 0 8z"/>
  </symbol>
  <symbol id="atomic__copy-o" viewBox="0 0 24 24">
    <path d="M19 3H8v14h11V3zm2 0a2 2 0 0 0-2-2H8a2 2 0 0 0-2 2v14a2 2 0 0 0 2 2h11a2 2 0 0 0 2-2V3zM4 23a2 2 0 0 1-2-2V7h2v14h12v2H4z"/>
  </symbol>
  <symbol id="atomic__copy" viewBox="0 0 24 24">
    <path d="M19 1a2 2 0 0 1 2 2v14a2 2 0 0 1-2 2H8a2 2 0 0 1-2-2V3a2 2 0 0 1 2-2h11zm-2.75 19.5H4.5V6.75H2v14A2.25 2.25 0 0 0 4.25 23h12v-2.5z"/>
  </symbol>
  <symbol id="atomic__dashboard-o" viewBox="0 0 24 24">
    <path d="M4 11h5V4H4v7zm-2 1a1 1 0 0 0 1 1h7a1 1 0 0 0 1-1V3a1 1 0 0 0-1-1H3a1 1 0 0 0-1 1v9zm13-5h5V4h-5v3zm-2 1a1 1 0 0 0 1 1h7a1 1 0 0 0 1-1V3a1 1 0 0 0-1-1h-7a1 1 0 0 0-1 1v5zm7 12h-5v-7h5v7zm-6 2a1 1 0 0 1-1-1v-9a1 1 0 0 1 1-1h7a1 1 0 0 1 1 1v9a1 1 0 0 1-1 1h-7zM4 20h5v-3H4v3zm-2 1a1 1 0 0 0 1 1h7a1 1 0 0 0 1-1v-5a1 1 0 0 0-1-1H3a1 1 0 0 0-1 1v5z"/>
  </symbol>
  <symbol id="atomic__dashboard" viewBox="0 0 24 24">
    <path d="M20.49 2h-6.26a1.5 1.5 0 0 0-1.5 1.5v4a1.51 1.51 0 0 0 1.5 1.5h6.26A1.51 1.51 0 0 0 22 7.49v-4A1.498 1.498 0 0 0 20.49 2zm-17 0h6.25a1.5 1.5 0 0 1 1.5 1.49V12a1.5 1.5 0 0 1-1.5 1.5H3.5A1.5 1.5 0 0 1 2 12V3.49A1.5 1.5 0 0 1 3.49 2zm0 13h6.25a1.5 1.5 0 0 1 1.5 1.5v4a1.5 1.5 0 0 1-1.5 1.5H3.49A1.498 1.498 0 0 1 2 20.49v-4A1.5 1.5 0 0 1 3.49 15zm10.74-4.51h6.26v.01a1.5 1.5 0 0 1 1.5 1.5v8.49a1.5 1.5 0 0 1-1.5 1.5h-6.26a1.5 1.5 0 0 1-1.5-1.5v-8.5a1.5 1.5 0 0 1 1.5-1.5z"/>
  </symbol>
  <symbol id="atomic__delete-o" viewBox="0 0 24 24">
    <path d="M10 4a1 1 0 0 0-1 1v.5h6V5a1 1 0 0 0-1-1h-4zM7 5v.5H3v2h1V19c0 1.656 1.344 3 3 3h10c1.656 0 3-1.344 3-3V7.5h1v-2h-4V5c0-1.656-1.344-3-3-3h-4C8.344 2 7 3.344 7 5zm11 2.5H6V19a1 1 0 0 0 1 1h10a1 1 0 0 0 1-1V7.5zM9 17v-7h2v7H9zm4-7v7h2v-7h-2z"/>
  </symbol>
  <symbol id="atomic__delete" viewBox="0 0 24 24">
    <path d="M3 7V5h18v2H3z"/>
    <path d="M10 4a1 1 0 0 0-1 1v1H7V5c0-1.656 1.344-3 3-3h4c1.656 0 3 1.344 3 3v1h-2V5a1 1 0 0 0-1-1h-4zm9 4.5V20a2 2 0 0 1-2 2H7a2 2 0 0 1-2-2V8.5h14zM9 19v-7.5h2V19H9zm4-7.5V19h2v-7.5h-2z"/>
  </symbol>
  <symbol id="atomic__download-o" viewBox="0 0 24 24">
    <path d="M11 14.416 7.08 10.52l-1.41 1.42 5.229 5.194a1.56 1.56 0 0 0 2.202 0l5.229-5.194-1.41-1.419L13 14.416V2h-2v12.416zM2 18.75v-3.573h2v3.573c0 .69.56 1.25 1.25 1.25h13.5c.69 0 1.25-.56 1.25-1.25v-3.573h2v3.573A3.25 3.25 0 0 1 18.75 22H5.25A3.25 3.25 0 0 1 2 18.75z"/>
  </symbol>
  <symbol id="atomic__download" viewBox="0 0 24 24">
    <path d="m10.75 13.815-3.494-3.471-1.762 1.773 5.229 5.195a1.812 1.812 0 0 0 2.554 0l5.229-5.195-1.762-1.773-3.494 3.47V2h-2.5v11.815zm-9 4.935v-3.573h2.5v3.573a1 1 0 0 0 1 1h13.5a1 1 0 0 0 1-1v-3.573h2.5v3.573a3.5 3.5 0 0 1-3.5 3.5H5.25a3.5 3.5 0 0 1-3.5-3.5z"/>
  </symbol>
  <symbol id="atomic__edit-o" viewBox="0 0 24 24">
    <path d="m16.582 6.01 1.627-1.635 1.323 1.33-1.626 1.636-1.324-1.33zm-1.41 1.418L4 18.658V20h1.313L16.495 8.759l-1.324-1.33zM6.732 21.41 21.573 6.49c.43-.433.43-1.133 0-1.567l-2.586-2.6a1.103 1.103 0 0 0-1.557-.001L2.582 17.248A2 2 0 0 0 2 18.658V21.5a.5.5 0 0 0 .5.5h2.813c.532 0 1.043-.212 1.418-.59z"/>
  </symbol>
  <symbol id="atomic__edit" viewBox="0 0 24 24">
    <path d="m15.83 3.93 1.6-1.608a1.107 1.107 0 0 1 1.558 0l2.586 2.6c.43.434.43 1.134 0 1.567l-1.6 1.608-.422.425-.307.309-4.156-4.156.318-.32.423-.425zm-2.15 2.163L2.582 17.248A2 2 0 0 0 2 18.658V21.5a.5.5 0 0 0 .5.5h2.813c.532 0 1.043-.212 1.418-.59l11.103-11.16-4.154-4.157z"/>
    <path d="M21.574 6.489c.43-.433.43-1.133 0-1.567l-2.586-2.6a1.103 1.103 0 0 0-1.558 0l-2.341 2.353 4.155 4.155 2.33-2.341zm-2.333-.49.291-.293-1.323-1.331-.295.296L19.24 6zm-1.407 4.25L13.68 6.093 2.582 17.248A2 2 0 0 0 2 18.658V21.5a.5.5 0 0 0 .5.5h2.813c.532 0 1.043-.212 1.418-.59l11.103-11.16zm-4.152-1.324L4 18.66V20h1.313l9.696-9.748-1.327-1.327z"/>
  </symbol>
  <symbol id="atomic__end-chat-o" viewBox="0 0 24 24">
    <path d="M22.34 20.7 3.44 1.8 2.02 3.22l1.6 1.6a6.616 6.616 0 0 0-1.49 4.2v3.86c0 3.34 2.62 6.08 5.86 6.16l.04 2.25c-.05.91.61 1.72 1.5 1.81.06.01.12.01.17.01.45 0 .89-.19 1.25-.57l2.88-3.51h2.03c.6 0 1.18-.09 1.73-.25l3.32 3.32 1.43-1.4zm-8.5-3.66c-.56 0-1.09.25-1.46.69l-2.36 2.83-.03-1.69a1.85 1.85 0 0 0-1.84-1.82c-2.22 0-4.02-1.87-4.02-4.16V9.02c0-1.05.35-2 .92-2.77l10.8 10.8h-2.01v-.01zm2.03-12.63c2.46 0 4.46 2.07 4.46 4.61v3.41c0 1.01-.32 1.93-.86 2.69l1.43 1.43a6.66 6.66 0 0 0 1.42-4.13v-3.4c0-3.65-2.9-6.61-6.46-6.61H8.59c-.56 0-1.1.08-1.61.22l1.78 1.78h7.11z"/>
  </symbol>
  <symbol id="atomic__end-chat" viewBox="0 0 24 24">
    <path d="M21.33 12.43V9.02c0-3.1-2.44-5.61-5.46-5.61H8.59c-.21 0-.41.03-.62.05l12.28 12.28c.67-.93 1.08-2.07 1.08-3.31zm1.01 8.27L3.44 1.8 2.02 3.21l2.31 2.31c-.75.96-1.2 2.17-1.2 3.5v3.86c0 2.85 2.25 5.16 5.02 5.16.46 0 .83.37.84.84l.05 2.44c-.04.4.23.75.61.79.2.02.4-.05.55-.2l2.96-3.54c.17-.21.43-.33.69-.33h2.03c.31 0 .6-.04.89-.09l4.16 4.16 1.41-1.41z"/>
  </symbol>
  <symbol id="atomic__energy-o" viewBox="0 0 24 24">
    <path d="M7.353 2.766A.999.999 0 0 1 8.325 2h5.89a1.001 1.001 0 0 1 .979 1.204l-1 4.794H18a1 1 0 0 1 .834 1.552L10.88 21.552a1 1 0 0 1-1.833-.574l.164-7.336H6a1 1 0 0 1-.972-1.234l2.325-9.642zM9.113 4 7.27 11.642h2.963a1 1 0 0 1 1 1.023l-.11 4.9 5.015-7.567h-3.175a1 1 0 0 1-.978-1.204l1-4.794H9.113z"/>
  </symbol>
  <symbol id="atomic__energy" viewBox="0 0 24 24">
    <path d="M7.353 2.766A.999.999 0 0 1 8.325 2h5.89a1.001 1.001 0 0 1 .979 1.204l-1 4.794H18a1 1 0 0 1 .834 1.552L10.88 21.552a1 1 0 0 1-1.833-.574l.164-7.336H6a1 1 0 0 1-.972-1.234l2.325-9.642z"/>
  </symbol>
  <symbol id="atomic__external-link-o" viewBox="0 0 24 24">
    <path stroke-linejoin="round" stroke-width="2" d="m12 12 8-8m0 10.88V18a2 2 0 0 1-2 2H6a2 2 0 0 1-2-2V6a2 2 0 0 1 2-2h3.44M20 10V5a1 1 0 0 0-1-1h-5"/>
    <path d="M6 5a1 1 0 0 0-1 1v12a1 1 0 0 0 1 1h12a1 1 0 0 0 1-1v-3.12h2V18a3 3 0 0 1-3 3H6a3 3 0 0 1-3-3V6a3 3 0 0 1 3-3h3.44v2H6zm13 1.414-6.293 6.293-1.414-1.414L17.586 5H14V3h5a2 2 0 0 1 2 2v5h-2V6.414z"/>
  </symbol>
  <symbol id="atomic__external-link" viewBox="0 0 24 24">
    <path d="M6 5.25a.75.75 0 0 0-.75.75v12c0 .414.336.75.75.75h12a.75.75 0 0 0 .75-.75v-3.12h2.5V18A3.25 3.25 0 0 1 18 21.25H6A3.25 3.25 0 0 1 2.75 18V6A3.25 3.25 0 0 1 6 2.75h3.44v2.5H6zm12.75 1.768-5.866 5.866-1.768-1.768 5.866-5.866H14v-2.5h5A2.25 2.25 0 0 1 21.25 5v5h-2.5V7.018z"/>
  </symbol>
  <symbol id="atomic__eye-close-o" viewBox="0 0 24 24">
    <path d="m17.971 18.871 3.12 3.12 1.415-1.413L4.121 2.193 2.707 3.607l3.434 3.434C4.284 8.465 2.825 10.545 2 13c1.573 4.683 5.455 8 10 8 2.21 0 4.264-.784 5.971-2.129zm-1.427-1.427-1.666-1.666a4.001 4.001 0 1 1-5.656-5.656l-1.65-1.65C6.116 9.513 4.903 11.066 4.13 13c1.477 3.695 4.56 6 7.87 6 1.623 0 3.192-.555 4.544-1.556zm-5.907-5.907a2 2 0 1 0 2.826 2.826l-2.826-2.826zM22 13a13.437 13.437 0 0 1-1.373 2.899l-1.454-1.455c.26-.453.494-.936.697-1.444-1.477-3.695-4.56-6-7.87-6-.089 0-.178.002-.267.005L9.957 5.228A9.21 9.21 0 0 1 12 5c4.546 0 8.427 3.317 10 8z"/>
  </symbol>
  <symbol id="atomic__eye-close" viewBox="0 0 24 24">
    <path d="M3.414 2.5 2 3.914l3.224 3.224A11.898 11.898 0 0 0 1 12.5C2.73 16.89 7 20 12 20c1.781 0 3.47-.395 4.984-1.102l3.4 3.401 1.415-1.414-3.023-3.023A11.9 11.9 0 0 0 23 12.5C21.27 8.11 17 5 12 5c-1.781 0-3.47.395-4.984 1.102L3.414 2.5zm5.14 7.968a4.001 4.001 0 0 0 5.478 5.478l-5.478-5.478zm6.892 4.064L9.968 9.054a4.001 4.001 0 0 1 5.478 5.478z"/>
  </symbol>
  <symbol id="atomic__eye-o" viewBox="0 0 24 24">
    <path d="M12 18c-3.31 0-6.393-2.305-7.87-6C5.607 8.305 8.69 6 12 6c3.31 0 6.393 2.305 7.87 6-1.477 3.695-4.56 6-7.87 6zm0 2c4.546 0 8.427-3.317 10-8-1.573-4.683-5.454-8-10-8-4.545 0-8.427 3.317-10 8 1.573 4.683 5.455 8 10 8zm2-8a2 2 0 1 0-4.001.001A2 2 0 0 0 14 12zm-2-4c2.208 0 4 1.792 4 4s-1.792 4-4 4-4-1.792-4-4 1.792-4 4-4z"/>
  </symbol>
  <symbol id="atomic__eye" viewBox="0 0 24 24">
    <path d="M1 12.5C2.73 8.11 7 5 12 5s9.27 3.11 11 7.5c-1.73 4.39-6 7.5-11 7.5s-9.27-3.11-11-7.5zm7 0c0 2.208 1.792 4 4 4s4-1.792 4-4-1.792-4-4-4-4 1.792-4 4z"/>
  </symbol>
  <symbol id="atomic__facebook-o" viewBox="0 0 24 24">
    <path d="M8 7a6 6 0 0 1 6-6h3a1 1 0 0 1 1 1v4a1 1 0 0 1-1 1h-3v2h3a.998.998 0 0 1 .97 1.242l-1 4A.999.999 0 0 1 16 15h-2v7a1 1 0 0 1-1 1H9a1 1 0 0 1-1-1v-7H6a1 1 0 0 1-1-1v-4a1 1 0 0 1 1-1h2V7zm6-4c-2.21 0-4 1.79-4 4v3a1 1 0 0 1-1 1H7v2h2a1 1 0 0 1 1 1v7h2v-7a1 1 0 0 1 1-1h2.22l.5-2H13a1 1 0 0 1-1-1V7a2 2 0 0 1 2-2h2V3h-2z"/>
  </symbol>
  <symbol id="atomic__facebook" viewBox="0 0 24 24">
    <path d="M8.87 7.122C8.87 4.293 11.118 2 13.89 2h2.87c.132 0 .239.11.239.244v3.902a.242.242 0 0 1-.24.244H13.89a.725.725 0 0 0-.717.732v2.683h3.587a.244.244 0 0 1 .232.303l-.957 3.902a.24.24 0 0 1-.232.185h-2.63v7.561a.242.242 0 0 1-.24.244H9.11a.243.243 0 0 1-.24-.244v-7.56H6.24a.242.242 0 0 1-.239-.245V10.05c0-.135.107-.244.24-.244h2.63V7.122z"/>
  </symbol>
  <symbol id="atomic__filter-o" viewBox="0 0 24 24">
    <path d="M17 7a1.5 1.5 0 1 1-3.001-.001A1.5 1.5 0 0 1 17 7zm-4.855 1a3.501 3.501 0 0 0 6.71 0H22V6h-3.145a3.501 3.501 0 0 0-6.71 0H2v2h10.145zm-7 10H2v-2h3.145a3.501 3.501 0 0 1 6.71 0H22v2H11.855a3.501 3.501 0 0 1-6.71 0zM10 17a1.5 1.5 0 1 0-3.001.001A1.5 1.5 0 0 0 10 17z"/>
  </symbol>
  <symbol id="atomic__filter" viewBox="0 0 24 24">
    <path d="M17.83 8a3.003 3.003 0 0 1-5.66 0H2V6h10.17a3.003 3.003 0 0 1 5.66 0H22v2h-4.17zM2 18h4.17a3.004 3.004 0 0 0 5.66 0H22v-2H11.83a3.003 3.003 0 0 0-5.66 0H2v2z"/>
  </symbol>
  <symbol id="atomic__go-to-direction-o" viewBox="0 0 24 24">
    <path d="M9.877 1.706a3 3 0 0 1 4.243 0l8.172 8.173a2.998 2.998 0 0 1 0 4.242l-8.17 8.17a3 3 0 0 1-4.243 0L1.707 14.12a3 3 0 0 1 0-4.243l8.17-8.17zm2.829 1.414a1.002 1.002 0 0 0-1.415 0l-8.17 8.17c-.39.39-.39 1.024 0 1.415l8.173 8.172a1 1 0 0 0 1.414 0l8.17-8.17a1 1 0 0 0 0-1.414L12.706 3.12zm-2.06 8.284c-.059.072-.146.249-.146.596v4.294h-2V12c0-.653.162-1.332.603-1.868.464-.563 1.138-.845 1.897-.845h.012c.263.003 1.15.006 2.08.009l-1.289-1.289 1.414-1.414 2.647 2.647a1.5 1.5 0 0 1 0 2.121l-2.647 2.647-1.414-1.413 1.298-1.299a342.88 342.88 0 0 1-2.107-.01c-.237.002-.312.075-.348.118z"/>
  </symbol>
  <symbol id="atomic__go-to-direction" viewBox="0 0 24 24">
    <path d="M13.543 1.54a2.182 2.182 0 0 0-3.086 0L1.54 10.456a2.182 2.182 0 0 0 0 3.086l8.916 8.915a2.182 2.182 0 0 0 3.086 0l8.915-8.915a2.182 2.182 0 0 0 0-3.086L13.543 1.54zm-.502 5.23 2.646 2.647a1.25 1.25 0 0 1 0 1.768l-2.646 2.647-1.061-1.06 1.723-1.725a475.773 475.773 0 0 1-2.707-.01c-.303 0-.453.1-.543.208-.106.13-.203.37-.203.755v4.294h-1.5V12c0-.615.153-1.232.546-1.709.41-.498 1.01-.754 1.704-.754h.01c.32.004 1.568.008 2.687.01L11.98 7.83l1.06-1.06z"/>
  </symbol>
  <symbol id="atomic__heart-o" viewBox="0 0 24 24">
    <path d="M3 9.178C3 6.248 5.411 4 8.375 4c1.237 0 2.463.406 3.46 1.135l.165.122.166-.122A5.898 5.898 0 0 1 15.625 4C18.589 4 21 6.248 21 9.178c0 1.045-.292 2.04-.85 3.03-.98 1.736-2.218 2.969-6.359 6.558v.001l-1.789 1.557-1.792-1.549-.002-.002c-4.158-3.612-5.387-4.838-6.364-6.577C3.289 11.209 3 10.218 3 9.178zM8.375 6C6.43 6 5 7.436 5 9.178c0 .645.174 1.302.587 2.038.778 1.384 1.721 2.389 5.932 6.047l.478.413.482-.419.001-.001c4.194-3.636 5.148-4.649 5.927-6.031.418-.74.593-1.399.593-2.047C19 7.436 17.57 6 15.625 6c-.806 0-1.62.268-2.278.75L12 7.734l-1.347-.986A3.91 3.91 0 0 0 8.375 6z"/>
  </symbol>
  <symbol id="atomic__heart" viewBox="0 0 24 24">
    <path d="M13.277 18.87c4.688-4.129 5.921-5.412 6.911-7.194.55-.989.812-1.934.812-2.902C21 6.104 18.84 4 16.078 4a5.45 5.45 0 0 0-3.227 1.077L12 5.71l-.85-.633A5.462 5.462 0 0 0 7.921 4C5.161 4 3 6.105 3 8.774c0 .964.26 1.905.805 2.89.987 1.785 2.21 3.06 6.917 7.214L12 20l1.277-1.13z"/>
  </symbol>
  <symbol id="atomic__home-o" viewBox="0 0 24 24">
    <path d="M12.637 1.749a1 1 0 0 0-1.322.001l-9.977 8.813 1.324 1.498.338-.298V21a1.5 1.5 0 0 0 1.5 1.5h4.504a1.5 1.5 0 0 0 1.5-1.5v-3.566a1.509 1.509 0 1 1 3.017 0V21a1.5 1.5 0 0 0 1.5 1.5H19.5A1.5 1.5 0 0 0 21 21v-9.237l.34.3 1.32-1.503-10.023-8.811zM19 10.005l-7.021-6.172-6.98 6.164V20.5h3.505v-3.066a3.509 3.509 0 1 1 7.017 0V20.5H19V10.005z"/>
  </symbol>
  <symbol id="atomic__home" viewBox="0 0 24 24">
    <path d="M11.315 1.75a1 1 0 0 1 1.322-.001l10.023 8.81-1.32 1.503-.59-.518V21c0 .69-.56 1.25-1.25 1.25h-4.48c-.69 0-1.25-.56-1.25-1.25v-3.566a1.758 1.758 0 1 0-3.517 0V21c0 .69-.56 1.25-1.25 1.25H4.5c-.69 0-1.25-.56-1.25-1.25v-9.458l-.588.52-1.324-1.5 9.977-8.812z"/>
  </symbol>
  <symbol id="atomic__hourglass-full" viewBox="0 0 24 24">
    <path d="M6.586 2.586C6.946 2.225 7.448 2 8 2h8c.552 0 1.053.225 1.414.586.361.36.586.862.586 1.414v1.555a5.999 5.999 0 0 1-1.69 4.174L14.11 12l2.2 2.271A6 6 0 0 1 18 18.445V20c0 .552-.225 1.053-.586 1.414-.36.361-.862.586-1.414.586H8a1.996 1.996 0 0 1-1.414-.586A1.994 1.994 0 0 1 6 20v-1.555c0-1.558.606-3.055 1.69-4.174L9.89 12l-2.2-2.271A6 6 0 0 1 6 5.555V4c0-.552.225-1.053.586-1.414zM16 4H8v1.555a4 4 0 0 0 1.127 2.783L12 11.304l2.873-2.966A4.002 4.002 0 0 0 16 5.555V4zm-4 8.696-2.873 2.966A3.998 3.998 0 0 0 8 18.445V20h8v-1.555a3.998 3.998 0 0 0-1.127-2.783L12 12.696zM14 18h-4v-2h4v2zM10 8h4V6h-4v2z"/>
  </symbol>
  <symbol id="atomic__hourglass" viewBox="0 0 24 24">
    <path d="m7.994 3.994.003-.002h8.006l.002.002.003.003v1.558c0 1.04-.405 2.04-1.13 2.788L12 11.317 9.12 8.343a4.006 4.006 0 0 1-1.129-2.788V3.997l.003-.003zM9.12 15.657 12 12.683l2.879 2.974a4.006 4.006 0 0 1 1.129 2.788v1.558l-.003.003-.003.002H7.997s-.002 0-.003-.002l-.003-.003v-1.558c0-1.04.405-2.04 1.13-2.788zM8 2.008c-.55 0-1.05.224-1.409.584-.36.359-.583.858-.583 1.408v1.555c0 1.556.605 3.05 1.687 4.168L9.9 12l-2.205 2.277a5.992 5.992 0 0 0-1.687 4.168V20A1.989 1.989 0 0 0 8 21.992h8c.55 0 1.049-.224 1.408-.584.36-.359.583-.858.583-1.408v-1.555c0-1.556-.605-3.05-1.687-4.168L14.099 12l2.205-2.277a5.99 5.99 0 0 0 1.687-4.168V4a1.989 1.989 0 0 0-1.992-1.992H8zm2 15.984h4v-1.984h-4v1.984z"/>
  </symbol>
  <symbol id="atomic__idea-o" viewBox="0 0 24 24">
    <path d="M13 4V2h-2v2h2zm2.092 11.637a4.743 4.743 0 0 0 1.679-3.625c0-2.621-2.136-4.757-4.758-4.757s-4.757 2.136-4.757 4.757c0 1.44.639 2.783 1.761 3.695l.043.036a4.755 4.755 0 0 1 1.464 2.281h2.98a4.787 4.787 0 0 1 1.588-2.387zm-5.68 4.387a.704.704 0 0 1-.703-.704c0-.791-.36-1.551-.953-2.061a6.73 6.73 0 0 1-2.5-5.247 6.764 6.764 0 0 1 6.757-6.757 6.765 6.765 0 0 1 6.758 6.757c0 2-.88 3.886-2.413 5.174l-.014.011a2.772 2.772 0 0 0-1.027 2.123.704.704 0 0 1-.704.704h-5.2zM15 23H9v-2h6v2zm5-10h2v-2h-2v2zM4 13H2v-2h2v2zm1.707-8.707 1.414 1.414-1.414 1.414-1.414-1.414 1.414-1.414zM18.293 7.12l1.414-1.414-1.414-1.414-1.414 1.414 1.414 1.414z"/>
  </symbol>
  <symbol id="atomic__idea" viewBox="0 0 24 24">
    <path stroke-width="2" d="M9 22h6"/>
    <path stroke-linejoin="round" stroke-width="2" d="m8.408 16.5-.022-.017a5.737 5.737 0 0 1-2.13-4.471 5.764 5.764 0 0 1 5.757-5.757 5.765 5.765 0 0 1 5.758 5.757c0 1.699-.745 3.3-2.044 4.398h-.001l-.008.007a3.788 3.788 0 0 0-1.389 2.607H9.697a3.746 3.746 0 0 0-1.29-2.523z"/>
    <path stroke-width="2" d="M20 12h2M2 12h2m8-8V2M6.414 6.414 5 5m12.5 1.414L18.914 5"/>
  </symbol>
  <symbol id="atomic__image-o" viewBox="0 0 24 24">
    <path stroke-width="2" d="M19.2 4H4.8C3.806 4 3 4.796 3 5.778v12.444A1.79 1.79 0 0 0 4.8 20h14.4c.994 0 1.8-.796 1.8-1.778V5.778A1.79 1.79 0 0 0 19.2 4z"/>
    <path stroke-linejoin="round" stroke-width="2" d="m5.7 20.183 3.602-4.545 3.588 1.845L16.532 12l4.456 3.682"/>
    <path stroke-width="2" d="M8.8 11.6a1.8 1.8 0 1 0 0-3.6 1.8 1.8 0 0 0 0 3.6z"/>
  </symbol>
  <symbol id="atomic__image" viewBox="0 0 24 24">
    <path d="M2 5.778C2 4.232 3.265 3 4.8 3h14.4C20.735 3 22 4.232 22 5.778v12.444C22 19.768 20.735 21 19.2 21H4.8C3.265 21 2 19.768 2 18.222V5.778zm8.153 10.311-2.695-1.488a1 1 0 0 0-1.288.282l-1.493 2.023a1 1 0 0 0 .804 1.594H18a1.5 1.5 0 0 0 1.5-1.5v-3.367c0-.285-.122-.558-.336-.748l-2.927-2.596a1 1 0 0 0-1.514.221l-3.236 5.23c-.28.453-.867.607-1.334.35zM10.6 9.8a1.8 1.8 0 1 1-3.6 0 1.8 1.8 0 0 1 3.6 0z"/>
  </symbol>
  <symbol id="atomic__info-o" viewBox="0 0 24 24">
    <path d="M12 2C6.498 2 2 6.498 2 12s4.498 10 10 10 10-4.498 10-10S17.502 2 12 2zM4 12c0-4.398 3.602-8 8-8s8 3.602 8 8-3.602 8-8 8-8-3.602-8-8zm7-4.5v1.8h2V7.5h-2zm0 3.6v5.4h2v-5.4h-2z"/>
  </symbol>
  <symbol id="atomic__info" viewBox="0 0 24 24">
    <path d="M2 12C2 6.498 6.498 2 12 2s10 4.498 10 10-4.498 10-10 10S2 17.502 2 12zm9-4.5v1.8h2V7.5h-2zm0 3.6v5.4h2v-5.4h-2z"/>
  </symbol>
  <symbol id="atomic__location-o" viewBox="0 0 24 24">
    <path d="M11.472 1C7.294 1 4 4.275 4 8.448c0 2.636 1.059 4.111 2.753 6.473l.083.116.376.519c1.65 2.424 2.7 5.49 3.133 6.93.19.635.772.865 1.187.86.415-.004.991-.245 1.17-.883.403-1.437 1.398-4.49 3.083-6.908v-.002c.124-.177.254-.363.39-.554l.037-.052c.573-.818 1.259-1.796 1.799-2.856.552-1.082.989-2.317.989-3.643C19 4.328 15.61 1 11.472 1zM6 8.448C6 5.388 8.391 3 11.472 3 14.529 3 17 5.456 17 8.448c0 .89-.296 1.803-.77 2.735-.476.933-1.094 1.814-1.687 2.66-.139.196-.273.386-.4.569-1.195 1.716-2.06 3.68-2.641 5.267-.6-1.586-1.479-3.551-2.646-5.262l-.008-.011-.387-.535v-.002C6.676 11.385 6 10.398 6 8.448zm3.986.096c0-.875.703-1.566 1.53-1.566.948 0 1.605.67 1.605 1.566 0 .953-.748 1.68-1.606 1.68-.764 0-1.529-.723-1.529-1.68zm1.53-3.566c-1.958 0-3.53 1.613-3.53 3.566 0 1.952 1.553 3.68 3.53 3.68 2.015 0 3.605-1.677 3.605-3.68 0-2.028-1.58-3.566-3.606-3.566z"/>
  </symbol>
  <symbol id="atomic__location" viewBox="0 0 24 24">
    <path d="M11.472 1.25c-4.043 0-7.222 3.167-7.222 7.198 0 1.161.205 2.119.651 3.091.403.879.825 1.52 2.138 3.352l.383.53c1.372 2.011 2.438 4.357 3.183 7.022a.95.95 0 0 0 1.835-.02c.681-2.649 1.728-4.984 3.14-7.011.129-.186.26-.372.391-.558.317-.451.442-.631.613-.883 1.442-2.127 2.166-3.751 2.166-5.523 0-3.971-3.268-7.198-7.278-7.198zm.043 9.225c-.947 0-1.779-.882-1.779-1.93 0-1.003.803-1.817 1.78-1.817 1.074 0 1.855.77 1.855 1.816 0 1.069-.838 1.93-1.856 1.93z"/>
  </symbol>
  <symbol id="atomic__lock-o" viewBox="0 0 24 24">
    <path d="M7 18.5V12h10v6.5a.5.5 0 0 1-.5.5h-9a.5.5 0 0 1-.5-.5zM17 10V8A5 5 0 0 0 7 8v2H5v8.5A2.5 2.5 0 0 0 7.5 21h9a2.5 2.5 0 0 0 2.5-2.5V10h-2zM9 8v2h6V8a3 3 0 1 0-6 0zm4 9v-3h-2v3h2z"/>
  </symbol>
  <symbol id="atomic__lock" viewBox="0 0 24 24">
    <path d="M16.5 21a2.5 2.5 0 0 0 2.5-2.5V10H5v8.5A2.5 2.5 0 0 0 7.5 21h9zM13 14h-2v3h2v-3z"/>
    <path stroke-width="2" d="M9 11H8V8c0-2.21 1.79-4 4-4s4 1.79 4 4v3H9z"/>
  </symbol>
  <symbol id="atomic__login" viewBox="0 0 24 24">
    <path d="M18.01 22c1.637 0 3.002-1.302 3.002-2.982V4.982C21.012 3.316 19.651 2 18.01 2H13v2h5.01a.99.99 0 0 1 1.002.982v14.036A.984.984 0 0 1 18.01 20H13v2h5.01zM11.713 7.29l3.643 3.65a1.502 1.502 0 0 1 0 2.12l-3.643 3.65-1.416-1.412L12.59 13H4.006v-2h8.584l-2.293-2.298 1.416-1.413z"/>
  </symbol>
  <symbol id="atomic__logout" viewBox="0 0 24 24">
    <path d="M6.002 22C4.365 22 3 20.698 3 19.018V4.982C3 3.316 4.362 2 6.002 2h5.01v2h-5.01A.99.99 0 0 0 5 4.982v14.036c0 .542.437.982 1.002.982h5.01v2h-5.01zm9.71-14.71 3.643 3.65a1.5 1.5 0 0 1 0 2.12l-3.643 3.65-1.415-1.412L16.59 13H8.006v-2h8.584l-2.293-2.298 1.415-1.413z"/>
  </symbol>
  <symbol id="atomic__mail-o" viewBox="0 0 24 24">
    <path d="M4 6h16v1.465l-7.445 4.963a1 1 0 0 1-1.11 0L4 7.465V6zm0 3.869V18h16V9.869l-6.336 4.223a2.999 2.999 0 0 1-3.328 0L4 9.87zM2 6a2 2 0 0 1 2-2h16a2 2 0 0 1 2 2v12a2 2 0 0 1-2 2H4a2 2 0 0 1-2-2V6z"/>
  </symbol>
  <symbol id="atomic__mail" viewBox="0 0 24 24">
    <path d="M4 4a2 2 0 0 0-2 2v.131l9.445 6.297a1 1 0 0 0 1.11 0L22 6.131V6a2 2 0 0 0-2-2H4zm18 4.535-8.336 5.557a2.999 2.999 0 0 1-3.328 0L2 8.535V18a2 2 0 0 0 2 2h16a2 2 0 0 0 2-2V8.535z"/>
  </symbol>
  <symbol id="atomic__menu-o" viewBox="0 0 24 24">
    <path d="M2 5h20V3H2v2zm0 8h20v-2H2v2zm20 8H2v-2h20v2z"/>
  </symbol>
  <symbol id="atomic__menu" viewBox="0 0 24 24">
    <path d="M2 5.25h20v-2.5H2v2.5zm0 8h20v-2.5H2v2.5zm20 8H2v-2.5h20v2.5z"/>
  </symbol>
  <symbol id="atomic__minus-circle-o" viewBox="0 0 24 24">
    <path d="M18.5 12a6.5 6.5 0 1 1-13 0 6.5 6.5 0 0 1 13 0zm2 0a8.5 8.5 0 1 1-17.001-.001A8.5 8.5 0 0 1 20.5 12zM8 13h8v-2H8v2z"/>
  </symbol>
  <symbol id="atomic__minus-circle" viewBox="0 0 24 24">
    <mask id="atomic__x65aa8x0xa">
      <path d="M12 20.5a8.5 8.5 0 1 0-.001-17.001A8.5 8.5 0 0 0 12 20.5zm-4-7.75h8v-1.5H8v1.5z"/>
    </mask>
    <path d="M12 20.5a8.5 8.5 0 1 0-.001-17.001A8.5 8.5 0 0 0 12 20.5zm-4-7.75h8v-1.5H8v1.5z"/>
    <path d="M16 12.75v1.5h1.5v-1.5H16zm-8 0H6.5v1.5H8v-1.5zm8-1.5h1.5v-1.5H16v1.5zm-8 0v-1.5H6.5v1.5H8zM19 12a7 7 0 0 1-7 7v3c5.523 0 10-4.477 10-10h-3zm-7-7a7 7 0 0 1 7 7h3c0-5.523-4.477-10-10-10v3zm-7 7a7 7 0 0 1 7-7V2C6.477 2 2 6.477 2 12h3zm7 7a7 7 0 0 1-7-7H2c0 5.523 4.477 10 10 10v-3zm4-7.75H8v3h8v-3zm-1.5 0v1.5h3v-1.5h-3zM8 12.75h8v-3H8v3zm1.5 0v-1.5h-3v1.5h3z" mask="url(#atomic__x65aa8x0xa)"/>
  </symbol>
  <symbol id="atomic__minus-o" viewBox="0 0 24 24">
    <path d="M5.816 12.84h12.368v-1.5H5.816v1.5z"/>
  </symbol>
  <symbol id="atomic__minus" viewBox="0 0 24 24">
    <path d="M5.816 13.09h12.368v-2H5.816v2z"/>
  </symbol>
  <symbol id="atomic__money" viewBox="0 0 24 24">
    <path d="M4 6a1 1 0 0 1 1-1h13.5a1 1 0 0 1 1 1v6.075a3.75 3.75 0 0 0-4.075 1.939A3.744 3.744 0 0 0 12.75 15.5H5a1 1 0 0 1-1-1V6zm10 11.75a1.75 1.75 0 0 1 1.022-1.592c.134 1.24.874 2.3 1.917 2.876A1.75 1.75 0 0 1 14 17.75zm8.5-2a3.75 3.75 0 0 1-3.425 3.736 3.751 3.751 0 0 1-7.067-1.986H5a3 3 0 0 1-3-3V6a3 3 0 0 1 3-3h13.5a3 3 0 0 1 3 3v7.2c.62.67 1 1.566 1 2.55zm-7.255-7.482h3.011v-2h-3.011v2zM11.75 9a.75.75 0 1 0 0 1.5.75.75 0 0 0 0-1.5zM9 9.75a2.75 2.75 0 1 1 5.5 0 2.75 2.75 0 0 1-5.5 0zm8 6a1.75 1.75 0 1 1 3.501.001A1.75 1.75 0 0 1 17 15.75zM5.264 14.268h2.992v-2H5.264v2z"/>
  </symbol>
  <symbol id="atomic__more-horizontal" viewBox="0 0 24 24">
    <path d="M3 12a2 2 0 1 1 3.999-.001A2 2 0 0 1 3 12zm9-2a2 2 0 1 0-.001 3.999A2 2 0 0 0 12 10zm7 0a2 2 0 1 0-.001 3.999A2 2 0 0 0 19 10z"/>
  </symbol>
  <symbol id="atomic__more-vertical" viewBox="0 0 24 24">
    <path d="M12 7a2 2 0 1 1-.001-3.999A2 2 0 0 1 12 7zm-2 5a2 2 0 1 0 3.999.001A2 2 0 0 0 10 12zm0 7a2 2 0 1 0 3.999.001A2 2 0 0 0 10 19z"/>
  </symbol>
  <symbol id="atomic__note-o" viewBox="0 0 24 24">
    <path d="M13 20H4V5h16v8h-4a3 3 0 0 0-3 3v4zm6.172-5L15 19.172V16a1 1 0 0 1 1-1h3.172zM2 20a2 2 0 0 0 2 2h10.172c.53 0 1.039-.21 1.414-.586l5.828-5.828A2 2 0 0 0 22 14.172V5a2 2 0 0 0-2-2H4a2 2 0 0 0-2 2v15zm5-10h10V8H7v2zm4 5H7v-2h4v2z"/>
  </symbol>
  <symbol id="atomic__note" viewBox="0 0 24 24">
    <path d="M4 22a2 2 0 0 1-2-2V5a2 2 0 0 1 2-2h16a2 2 0 0 1 2 2v9.172c0 .53-.21 1.039-.586 1.414l-5.828 5.828a2 2 0 0 1-1.414.586H4zm3-12h10V8H7v2zm4 5H7v-2h4v2zm8-1h-5v5l5-5z"/>
  </symbol>
  <symbol id="atomic__order-by-o" viewBox="0 0 24 24">
    <path d="m11.207 7.293-4-4a.997.997 0 0 0-1.414 0l-4 4 1.414 1.414L5.5 6.414V21h2V6.414l2.293 2.293 1.414-1.414zM18.5 17.586V3h-2v14.586l-2.293-2.293-1.414 1.414 4 4a1 1 0 0 0 1.414 0l4-4-1.414-1.414-2.293 2.293z"/>
  </symbol>
  <symbol id="atomic__order-by" viewBox="0 0 24 24">
    <path d="m11.384 7.116-4-4a1.25 1.25 0 0 0-1.768 0l-4 4 1.768 1.768L5.25 7.018V21h2.5V7.018l1.866 1.866 1.768-1.768zm7.366 9.866V3h-2.5v13.982l-1.866-1.866-1.768 1.768 4 4a1.254 1.254 0 0 0 1.768 0l4-4-1.768-1.768-1.866 1.866z"/>
  </symbol>
  <symbol id="atomic__percent" viewBox="0 0 24 24">
    <path d="M6 5a2 2 0 1 0-.001 3.999A2 2 0 0 0 6 5zM2 7c0-2.21 1.79-4 4-4s4 1.79 4 4-1.79 4-4 4-4-1.79-4-4zm1.327 12.293L19.293 3.327l1.414 1.414L4.741 20.707l-1.414-1.414zM16 17a2 2 0 1 1 3.999-.001A2 2 0 0 1 16 17zm2-4c-2.21 0-4 1.79-4 4s1.79 4 4 4 4-1.79 4-4-1.79-4-4-4z"/>
  </symbol>
  <symbol id="atomic__phone-o" viewBox="0 0 24 24">
    <path d="M21.535 18.933a2.506 2.506 0 0 0 .456-1.635v-.006c-.053-.57-.323-1.138-.833-1.499l-.006-.004a281.445 281.445 0 0 0-3.713-2.457c-.776-.475-1.704-.307-2.398.06l-.003.002c-.123.064-.324.175-.54.296-.357.2-.73.151-.962-.046a28.369 28.369 0 0 1-1.65-1.536 28.633 28.633 0 0 1-1.532-1.645c-.199-.233-.248-.609-.047-.966.12-.216.232-.416.296-.539l.001-.002c.368-.698.542-1.639.05-2.418-.22-.348-2.231-3.395-2.46-3.713h-.001c-.687-.951-2.087-1.091-3.137-.36l-.003.001c-.039.028-.743.54-1.445 1.194-.35.326-.727.714-1.022 1.116-.26.356-.605.914-.585 1.543v.001c.057 1.812.95 3.669 2.053 5.314 1.118 1.669 2.534 3.242 3.8 4.508 1.266 1.265 2.838 2.68 4.508 3.799 1.648 1.103 3.508 1.997 5.326 2.057h.052c.614 0 1.158-.344 1.51-.606.395-.296.778-.67 1.1-1.018.632-.681 1.13-1.36 1.18-1.433v-.002l.005-.006zm-1.652-1.127c.016-.024-.43.594-.999 1.207a6.576 6.576 0 0 1-.833.777c-.212.159-.314.195-.332.204-1.25-.051-2.715-.691-4.244-1.715-1.52-1.018-2.99-2.334-4.206-3.552-1.219-1.217-2.536-2.688-3.553-4.206C4.69 8.99 4.05 7.526 4.004 6.284c.006-.012.037-.11.194-.324.19-.259.466-.55.775-.838.606-.566 1.223-1.013 1.226-1.016.149-.104.266-.113.33-.106.035.005.05.013.057.016.245.349 2.123 3.193 2.367 3.575.001.008.005.025.002.062a.955.955 0 0 1-.12.371l-.002.003c-.05.094-.148.272-.27.492-.559.995-.538 2.294.269 3.241a30.68 30.68 0 0 0 1.64 1.763c.71.708 1.3 1.245 1.766 1.643.947.807 2.244.826 3.238.269.22-.123.4-.222.494-.272l.004-.002a.94.94 0 0 1 .364-.119c.039-.002.06 0 .067.003.374.23 3.21 2.116 3.579 2.368.004.008.01.026.014.06a.517.517 0 0 1-.11.326l-.005.007z"/>
  </symbol>
  <symbol id="atomic__phone" viewBox="0 0 24 24">
    <path d="M18.059 21h-.02c-3.246-.106-7.048-3.252-9.668-5.873C5.747 12.506 2.6 8.702 2.5 5.472c-.038-1.133 2.744-3.149 2.773-3.17.721-.502 1.523-.323 1.852.132A313.3 313.3 0 0 1 9.685 6.3c.238.376.203.936-.094 1.498-.065.124-.19.351-.334.607-.38.676-.345 1.513.156 2.105.404.478.964 1.097 1.72 1.852a30.483 30.483 0 0 0 1.856 1.723c.591.5 1.426.535 2.101.156.257-.144.485-.27.61-.335.553-.294 1.11-.33 1.489-.098.388.238 3.575 2.356 3.868 2.56.247.174.405.47.437.817a1.6 1.6 0 0 1-.302 1.04c-.018.027-2.01 2.775-3.134 2.775z"/>
  </symbol>
  <symbol id="atomic__plus-circle-o" viewBox="0 0 24 24">
    <path d="M12 18.5a6.5 6.5 0 1 0 0-13 6.5 6.5 0 0 0 0 13zm0 2a8.5 8.5 0 1 0-.001-17.001A8.5 8.5 0 0 0 12 20.5zM11 11V8h2v3h3v2h-3v3h-2v-3H8v-2h3z"/>
  </symbol>
  <symbol id="atomic__plus-circle" viewBox="0 0 24 24">
    <mask id="atomic__2rnx8kx70a">
      <path d="M12 20.5a8.5 8.5 0 1 0-.001-17.001A8.5 8.5 0 0 0 12 20.5zm-.75-4.5v-3.25H8v-1.5h3.25V8h1.5v3.25H16v1.5h-3.25V16h-1.5z"/>
    </mask>
    <path d="M12 20.5a8.5 8.5 0 1 0-.001-17.001A8.5 8.5 0 0 0 12 20.5zm-.75-4.5v-3.25H8v-1.5h3.25V8h1.5v3.25H16v1.5h-3.25V16h-1.5z"/>
    <path d="M11.25 12.75h1.5v-1.5h-1.5v1.5zm0 3.25h-1.5v1.5h1.5V16zM8 12.75H6.5v1.5H8v-1.5zm0-1.5v-1.5H6.5v1.5H8zm3.25 0v1.5h1.5v-1.5h-1.5zm0-3.25V6.5h-1.5V8h1.5zm1.5 0h1.5V6.5h-1.5V8zm0 3.25h-1.5v1.5h1.5v-1.5zm3.25 0h1.5v-1.5H16v1.5zm0 1.5v1.5h1.5v-1.5H16zm-3.25 0v-1.5h-1.5v1.5h1.5zm0 3.25v1.5h1.5V16h-1.5zM19 12a7 7 0 0 1-7 7v3c5.523 0 10-4.477 10-10h-3zm-7-7a7 7 0 0 1 7 7h3c0-5.523-4.477-10-10-10v3zm-7 7a7 7 0 0 1 7-7V2C6.477 2 2 6.477 2 12h3zm7 7a7 7 0 0 1-7-7H2c0 5.523 4.477 10 10 10v-3zm-2.25-6.25V16h3v-3.25h-3zM8 14.25h3.25v-3H8v3zm-1.5-3v1.5h3v-1.5h-3zm4.75-1.5H8v3h3.25v-3zM9.75 8v3.25h3V8h-3zm3-1.5h-1.5v3h1.5v-3zm1.5 4.75V8h-3v3.25h3zM16 9.75h-3.25v3H16v-3zm1.5 3v-1.5h-3v1.5h3zm-4.75 1.5H16v-3h-3.25v3zm1.5 1.75v-3.25h-3V16h3zm-3 1.5h1.5v-3h-1.5v3z" mask="url(#atomic__2rnx8kx70a)"/>
  </symbol>
  <symbol id="atomic__plus-o" viewBox="0 0 24 24">
    <path d="M11.25 12.84v5.434h1.5V12.84h5.434v-1.5H12.75V5.906h-1.5v5.434H5.816v1.5h5.434z"/>
  </symbol>
  <symbol id="atomic__plus" viewBox="0 0 24 24">
    <path d="M11 13.09v5.184h2V13.09h5.184v-2H13V5.906h-2v5.184H5.816v2H11z"/>
  </symbol>
  <symbol id="atomic__pointer-o" viewBox="0 0 24 24">
    <path stroke-width="2" d="M20.753 3.201c-.206-.201-.516-.251-.826-.15L3.516 9.384c-.413.151-.62.604-.465.956.104.2.31.402.516.452l6.055 1.613a2.001 2.001 0 0 1 1.418 1.417l1.765 6.623c.104.303.362.554.723.554h.051c.31 0 .62-.201.723-.503l6.657-16.491c.104-.252 0-.553-.206-.805z"/>
  </symbol>
  <symbol id="atomic__pointer" viewBox="0 0 24 24">
    <path d="M19.618 2.1c.58-.189 1.303-.131 1.833.385l.04.039.035.043c.305.37.666 1.065.36 1.815l-.002.003-6.647 16.467c-.262.721-.967 1.148-1.658 1.148h-.052c-.892 0-1.464-.631-1.668-1.23l-.011-.033-1.775-6.656a1 1 0 0 0-.71-.709l-6.046-1.61a1.714 1.714 0 0 1-.718-.397 2.028 2.028 0 0 1-.438-.568l-.013-.026-.012-.028c-.418-.95.155-1.968 1.026-2.293l16.43-6.342.026-.009z"/>
  </symbol>
  <symbol id="atomic__profile-view" viewBox="0 0 24 24">
    <path d="M4.942 4.866a.934.934 0 0 0-.849 1.012l.983 11.237c.24-.636.683-1.202 1.253-1.655.944-.75 2.28-1.244 3.879-1.384 1.599-.14 3 .114 4.06.69.629.341 1.156.81 1.503 1.382l-.98-11.206a.934.934 0 0 0-1.012-.849l-8.837.773zm9.227 12.785-7.242.633v-.01c-.03-.325.118-.77.675-1.214.558-.444 1.483-.834 2.784-.948 1.3-.113 2.279.11 2.906.45.626.34.848.753.876 1.078l.001.01zM2.233 6.04a2.8 2.8 0 0 1 2.546-3.035l8.837-.773a2.8 2.8 0 0 1 2.65 1.353l.008-.032 4.54 1.09a2.803 2.803 0 0 1 2.069 3.38l-2.836 11.803a2.802 2.802 0 0 1-3.379 2.069l-.012-.003-7.25-1.951-3.121.273a2.8 2.8 0 0 1-3.035-2.546L2.233 6.04zM14.83 19.467l2.285.615a.934.934 0 0 0 1.116-.692l2.836-11.803a.934.934 0 0 0-.69-1.126l-3.655-.879.947 10.825a2.803 2.803 0 0 1-2.547 3.035l-.292.025zM8.533 8.287a1.619 1.619 0 0 1 2.297-.202 1.625 1.625 0 0 1 .201 2.297 1.623 1.623 0 0 1-2.297.201 1.622 1.622 0 0 1-.201-2.296zm.944-2.441a3.493 3.493 0 0 0-2.375 1.24 3.488 3.488 0 0 0 .432 4.928 3.49 3.49 0 0 0 4.928-.431 3.488 3.488 0 0 0-.432-4.928 3.496 3.496 0 0 0-2.553-.81z"/>
  </symbol>
  <symbol id="atomic__public-o" viewBox="0 0 24 24">
    <path stroke-width="2" d="M3.628 10.614c.162.158.344.34.545.546.822.84.826.84 1.828.84h1.988c.552 0 1.015.436 1.015 1.015v2.873c0 .69.31 1.108.987 1.108H11c.662 0 .994.497.994 1.029v.968c0 .154.43 1.38.505 1.507M16.5 20c.5-1.75 1.498-4.608 1.498-4.94v-1.05c0-.546-.6-1.01-1.989-1.01h-2.023c-.658 0-.988-.333-.99-1 .002-.667-.33-1-.998-1-.945 0-.998-.71-1-.972v-.041c0-.217.03-.987.963-.987h.037c.472 0 .998-.384 1.002-.964.004-.58.004-.548 0-1.035-.005-.486.518-.997 1.03-.997.513 0 .966-.333.966-1.01L15 3.5"/>
    <circle cx="12" cy="12" r="9" stroke-width="2"/>
  </symbol>
  <symbol id="atomic__public" viewBox="0 0 24 24">
    <path d="M12 2c5.523 0 10 4.477 10 10s-4.477 10-10 10S2 17.523 2 12 6.477 2 12 2zm0 2.5a7.502 7.502 0 0 0-7.372 6.114c.162.158.344.34.545.546.822.84.826.84 1.828.84h1.988c.552 0 1.014.436 1.014 1.015v2.873c0 .69.312 1.108.988 1.108H12c.663 0 .995.497.995 1.029v.968c0 .154.047.297.123.424a7.454 7.454 0 0 0 3.13-1.235c.5-1.75.75-2.79.75-3.123v-1.05c0-.545-.6-1.009-1.988-1.009h-2.024c-.658 0-.987-.333-.99-1 .002-.667-.33-1-.998-1-.945 0-.997-.71-1-.972v-.041c0-.217.03-.987.963-.987h.037c.473 0 .998-.384 1.002-.964.004-.58.004-.548 0-1.035-.004-.486.518-.997 1.03-.997.514 0 .966-.333.966-1.01v-.226A7.518 7.518 0 0 0 12 4.5z"/>
  </symbol>
  <symbol id="atomic__qr-code-o" viewBox="0 0 24 24">
    <path d="M4 4v5h5V4H4zm-.5-2A1.5 1.5 0 0 0 2 3.5v6A1.5 1.5 0 0 0 3.5 11h6A1.5 1.5 0 0 0 11 9.5v-6A1.5 1.5 0 0 0 9.5 2h-6zM4 15v5h5v-5H4zm-.5-2A1.5 1.5 0 0 0 2 14.5v6A1.5 1.5 0 0 0 3.5 22h6a1.5 1.5 0 0 0 1.5-1.5v-6A1.5 1.5 0 0 0 9.5 13h-6zM15 9V4h5v5h-5zm-2-5.5A1.5 1.5 0 0 1 14.5 2h6A1.5 1.5 0 0 1 22 3.5v6a1.5 1.5 0 0 1-1.5 1.5h-6A1.5 1.5 0 0 1 13 9.5v-6zM5 6a1 1 0 0 1 1-1h1a1 1 0 0 1 1 1v1a1 1 0 0 1-1 1H6a1 1 0 0 1-1-1V6zm12-1a1 1 0 0 0-1 1v1a1 1 0 0 0 1 1h1a1 1 0 0 0 1-1V6a1 1 0 0 0-1-1h-1zM5 17a1 1 0 0 1 1-1h1a1 1 0 0 1 1 1v1a1 1 0 0 1-1 1H6a1 1 0 0 1-1-1v-1zm9-4a1 1 0 0 0-1 1v1a1 1 0 0 0 1 1h1a1 1 0 0 0 1-1v-1a1 1 0 0 0-1-1h-1zm5 1a1 1 0 0 1 1-1h1a1 1 0 0 1 1 1v1a1 1 0 0 1-1 1h-1a1 1 0 0 1-1-1v-1zm-2 2a1 1 0 0 0-1 1v1a1 1 0 0 0 1 1h1a1 1 0 0 0 1-1v-1a1 1 0 0 0-1-1h-1zm-4 4a1 1 0 0 1 1-1h1a1 1 0 0 1 1 1v1a1 1 0 0 1-1 1h-1a1 1 0 0 1-1-1v-1zm7-1a1 1 0 0 0-1 1v1a1 1 0 0 0 1 1h1a1 1 0 0 0 1-1v-1a1 1 0 0 0-1-1h-1z"/>
  </symbol>
  <symbol id="atomic__qr-code" viewBox="0 0 24 24">
    <path d="M2 3.5A1.5 1.5 0 0 1 3.5 2h6A1.5 1.5 0 0 1 11 3.5v6A1.5 1.5 0 0 1 9.5 11h-6A1.5 1.5 0 0 1 2 9.5v-6zM5.5 5a.5.5 0 0 0-.5.5v2a.5.5 0 0 0 .5.5h2a.5.5 0 0 0 .5-.5v-2a.5.5 0 0 0-.5-.5h-2zM13 3.5A1.5 1.5 0 0 1 14.5 2h6A1.5 1.5 0 0 1 22 3.5v6a1.5 1.5 0 0 1-1.5 1.5h-6A1.5 1.5 0 0 1 13 9.5v-6zM16.5 5a.5.5 0 0 0-.5.5v2a.5.5 0 0 0 .5.5h2a.5.5 0 0 0 .5-.5v-2a.5.5 0 0 0-.5-.5h-2zM2 14.5A1.5 1.5 0 0 1 3.5 13h6a1.5 1.5 0 0 1 1.5 1.5v6A1.5 1.5 0 0 1 9.5 22h-6A1.5 1.5 0 0 1 2 20.5v-6zM5.5 16a.5.5 0 0 0-.5.5v2a.5.5 0 0 0 .5.5h2a.5.5 0 0 0 .5-.5v-2a.5.5 0 0 0-.5-.5h-2zm7.5-2a1 1 0 0 1 1-1h1a1 1 0 0 1 1 1v1a1 1 0 0 1-1 1h-1a1 1 0 0 1-1-1v-1zm6 0a1 1 0 0 1 1-1h1a1 1 0 0 1 1 1v1a1 1 0 0 1-1 1h-1a1 1 0 0 1-1-1v-1zm-2 2a1 1 0 0 0-1 1v1a1 1 0 0 0 1 1h1a1 1 0 0 0 1-1v-1a1 1 0 0 0-1-1h-1zm-4 4a1 1 0 0 1 1-1h1a1 1 0 0 1 1 1v1a1 1 0 0 1-1 1h-1a1 1 0 0 1-1-1v-1zm7-1a1 1 0 0 0-1 1v1a1 1 0 0 0 1 1h1a1 1 0 0 0 1-1v-1a1 1 0 0 0-1-1h-1z"/>
  </symbol>
  <symbol id="atomic__refresh-o" viewBox="0 0 24 24">
    <path d="M3.941 3v4.594c0 .65.527 1.178 1.178 1.178h4.546v-2h-2.32A7 7 0 0 1 19 12h2A9 9 0 0 0 5.941 5.345V3h-2zM20.06 16.406V21h-2v-2.345A9 9 0 0 1 3 12h2a7 7 0 0 0 11.655 5.229h-2.32v-2h4.546c.65 0 1.178.527 1.178 1.177z"/>
  </symbol>
  <symbol id="atomic__refresh" viewBox="0 0 24 24">
    <path d="M7.593 6.594h1.93v2.25h-4.49c-.72 0-1.305-.585-1.305-1.305V3h2.25v2.012A9.225 9.225 0 0 1 21.225 12h-2.25A6.975 6.975 0 0 0 7.593 6.594zm12.68 9.867V21h-2.25v-2.012A9.225 9.225 0 0 1 2.775 12h2.25a6.975 6.975 0 0 0 11.383 5.406h-1.931v-2.25h4.49c.721 0 1.305.585 1.305 1.305z"/>
  </symbol>
  <symbol id="atomic__scan-qr-o" viewBox="0 0 24 24">
    <path d="M17.836 4.5H14.5v-2h3.336A3.663 3.663 0 0 1 21.5 6.164V8.5h-2V6.164c0-.919-.745-1.664-1.664-1.664zM2.5 13h19v-2h-19v2zm2 2.5v2.336c0 .919.745 1.664 1.664 1.664H9.5v2H6.164A3.663 3.663 0 0 1 2.5 17.836V15.5h2zm15 2.336V15.5h2v2.336a3.663 3.663 0 0 1-3.664 3.664H14.5v-2h3.336c.919 0 1.664-.745 1.664-1.664zM4.5 6.164c0-.919.745-1.664 1.664-1.664H9.5v-2H6.164A3.663 3.663 0 0 0 2.5 6.164V8.5h2V6.164z"/>
  </symbol>
  <symbol id="atomic__scan-qr" viewBox="0 0 24 24">
    <path d="M17.836 4.75H14.5v-2.5h3.336a3.914 3.914 0 0 1 3.914 3.914V8.5h-2.5V6.164c0-.78-.633-1.414-1.414-1.414zM2.5 13.25h19v-2.5h-19v2.5zm2.25 2.25v2.336c0 .78.633 1.414 1.414 1.414H9.5v2.5H6.164a3.914 3.914 0 0 1-3.914-3.914V15.5h2.5zm14.5 2.336V15.5h2.5v2.336a3.914 3.914 0 0 1-3.914 3.914H14.5v-2.5h3.336c.78 0 1.414-.633 1.414-1.414zM4.75 6.164c0-.78.633-1.414 1.414-1.414H9.5v-2.5H6.164A3.914 3.914 0 0 0 2.25 6.164V8.5h2.5V6.164z"/>
  </symbol>
  <symbol id="atomic__search-o" viewBox="0 0 24 24">
    <path d="M16 10a6 6 0 1 1-12 0 6 6 0 0 1 12 0zm.32 4.906a8 8 0 1 0-1.414 1.414l5.544 5.544 1.414-1.414-5.544-5.544z"/>
  </symbol>
  <symbol id="atomic__search" viewBox="0 0 24 24">
    <path d="M15.5 10a5.5 5.5 0 1 1-11 0 5.5 5.5 0 1 1 11 0zm.972 4.704a8 8 0 1 0-1.768 1.768l5.569 5.569 1.768-1.768-5.57-5.57z"/>
  </symbol>
  <symbol id="atomic__send-message-o" viewBox="0 0 24 24">
    <path stroke-width="2" d="m6.3 4.41 14.87 6.14c1.29.53 1.3 2.36 0 2.9l-14.8 6.14c-1.04.43-2.18-.33-2.18-1.45v-3.4c0-.77.56-1.42 1.31-1.55l6.48-1.09c.12-.02.12-.19 0-.21l-6.5-1.09c-.75-.13-1.3-.77-1.31-1.52l-.05-3.4C4.1 4.75 5.25 3.98 6.3 4.41z"/>
  </symbol>
  <symbol id="atomic__send-message" viewBox="0 0 24 24">
    <path d="m6.3 4.41 14.87 6.14c1.29.53 1.3 2.36 0 2.9l-14.8 6.14c-1.04.43-2.18-.33-2.18-1.45v-3.4c0-.77.56-1.42 1.31-1.55l6.48-1.09c.12-.02.12-.19 0-.21l-6.5-1.09c-.75-.13-1.3-.77-1.31-1.52l-.05-3.4C4.1 4.75 5.25 3.98 6.3 4.41z"/>
  </symbol>
  <symbol id="atomic__share-ios-o" viewBox="0 0 24 24">
    <path d="M13.101 2.684a1.563 1.563 0 0 0-2.202 0L5.67 7.88l1.41 1.419L11 5.403V17.64h2V5.403l3.92 3.895 1.41-1.42-5.23-5.193zM2 18.75v-5.573h2v5.573c0 .69.56 1.25 1.25 1.25h13.5c.69 0 1.25-.56 1.25-1.25v-5.573h2v5.573A3.25 3.25 0 0 1 18.75 22H5.25A3.25 3.25 0 0 1 2 18.75z"/>
  </symbol>
  <symbol id="atomic__share-ios" viewBox="0 0 24 24">
    <path d="M13.277 2.507a1.812 1.812 0 0 0-2.554 0L5.494 7.701l1.762 1.774 3.494-3.471V17.64h2.5V6.004l3.494 3.471 1.762-1.774-5.229-5.194zM1.75 18.75v-5.573h2.5v5.573a1 1 0 0 0 1 1h13.5a1 1 0 0 0 1-1v-5.573h2.5v5.573a3.5 3.5 0 0 1-3.5 3.5H5.25a3.5 3.5 0 0 1-3.5-3.5z"/>
  </symbol>
  <symbol id="atomic__share-o" viewBox="0 0 24 24">
    <path d="M18.5 6a1.5 1.5 0 1 0-.001-3.001A1.5 1.5 0 0 0 18.5 6zM22 4.5a3.5 3.5 0 0 1-5.965 2.484L8.89 11.13a3.515 3.515 0 0 1-.016 1.802l7.115 4.129a3.5 3.5 0 1 1-.926 1.774l-7.25-4.208a3.5 3.5 0 1 1 .047-5.211l7.216-4.188A3.5 3.5 0 1 1 22 4.5zM18.5 21a1.5 1.5 0 1 0-.001-3.001A1.5 1.5 0 0 0 18.5 21zM7 12a1.5 1.5 0 1 1-3.001-.001A1.5 1.5 0 0 1 7 12z"/>
  </symbol>
  <symbol id="atomic__share" viewBox="0 0 24 24">
    <path d="M18.5 8a3.5 3.5 0 1 0-3.424-2.772L7.86 9.416a3.5 3.5 0 1 0-.048 5.211l7.251 4.208a3.5 3.5 0 1 0 .927-1.775l-7.115-4.128a3.54 3.54 0 0 0 .016-1.802l7.144-4.146A3.486 3.486 0 0 0 18.5 8z"/>
  </symbol>
  <symbol id="atomic__sign" viewBox="0 0 24 24">
    <path d="M18.196 5.025a.862.862 0 0 0-1.22 0L14.72 7.28l1.995 2.005 1.912-1.911.348-.35a.86.86 0 0 0 0-1.22l-.779-.78zM15.3 10.7l-1.995-2.005-7.914 7.913c-.25.25-.391.59-.391.945V19h1.447c.354 0 .694-.14.944-.391l7.91-7.909zm-3.409-3.42-7.914 7.914A3.337 3.337 0 0 0 3 17.553v1.863C3 20.291 3.71 21 4.584 21h1.863c.884 0 1.733-.351 2.358-.977L20.041 8.79l.349-.35a2.863 2.863 0 0 0 0-4.049l-.78-.78a2.863 2.863 0 0 0-4.049 0l-2.255 2.256-.648-.647-.055-.042a3.639 3.639 0 0 0-1.635-.677c-.726-.099-1.596.047-2.317.767L5.293 8.625l1.414 1.415 3.358-3.358c.19-.19.389-.233.631-.2.253.035.502.154.654.257l.542.541zM14 19h7v2h-7v-2z"/>
  </symbol>
  <symbol id="atomic__skype-o" viewBox="0 0 24 24">
    <path d="M5.097 5.099A3.701 3.701 0 0 1 7.73 4c.675 0 1.304.178 1.845.49l.23.133.265.001c.508.002.89-.008 1.206-.018l.184-.007c.23-.008.408-.014.59-.014 2.061 0 3.926.839 5.279 2.2a7.518 7.518 0 0 1 2.191 5.322c0 .448-.038.886-.112 1.311l-.05.281.108.265c.468 1.16.636 1.823.636 2.487a3.763 3.763 0 0 1-1.096 2.665 3.708 3.708 0 0 1-4.481.608l-.23-.132h-.265a28.35 28.35 0 0 0-1.206.018l-.183.006c-.23.009-.408.015-.59.015-2.06 0-3.926-.84-5.279-2.2a7.525 7.525 0 0 1-2.192-5.324c0-.447.038-.884.113-1.304l.05-.283-.108-.266C4.167 9.092 4 8.428 4 7.764c0-1.042.419-1.983 1.097-2.665zM7.73 2a5.701 5.701 0 0 0-4.053 1.689A5.767 5.767 0 0 0 2 7.764c0 .978.244 1.868.678 2.978a9.64 9.64 0 0 0-.097 1.365c0 2.628 1.06 5.01 2.774 6.734a9.413 9.413 0 0 0 6.696 2.79c.223 0 .445-.008.678-.016l.164-.006c.246-.009.527-.017.88-.018.781.4 1.665.624 2.598.624a5.7 5.7 0 0 0 4.054-1.689 5.762 5.762 0 0 0 1.678-4.075c0-.98-.246-1.869-.679-2.976a9.65 9.65 0 0 0 .097-1.368c0-2.627-1.06-5.01-2.773-6.733a9.42 9.42 0 0 0-6.697-2.79c-.221 0-.443.009-.676.017l-.165.006c-.246.008-.527.016-.88.017A5.7 5.7 0 0 0 7.73 2zm4.236 4.667c-.732 0-1.68.117-2.483.555-.868.473-1.55 1.325-1.55 2.611 0 .619.165 1.178.543 1.634.36.435.836.682 1.276.842.437.16.929.264 1.39.355l.271.054c.39.076.775.152 1.177.252.868.217 1.158.385 1.269.495.042.043.14.143.14.702 0 .274-.123.53-.44.751-.337.236-.881.415-1.593.415-.988 0-1.611-.4-2.002-.79a2.917 2.917 0 0 1-.523-.72l-.016-.035-.001-.001a1 1 0 0 0-1.853.751l.928-.371-.928.372v.001l.001.002.002.005.005.013c.004.009.01.02.015.034l.048.103a4.89 4.89 0 0 0 .908 1.26c.693.693 1.803 1.376 3.416 1.376 1.02 0 1.993-.253 2.74-.776.766-.537 1.293-1.365 1.293-2.39 0-.742-.12-1.509-.726-2.116-.54-.54-1.333-.805-2.198-1.021a25.059 25.059 0 0 0-1.295-.278l-.249-.05c-.467-.092-.82-.172-1.095-.272-.272-.1-.377-.187-.42-.238-.025-.03-.084-.11-.084-.359 0-.447.184-.678.508-.855.39-.212.957-.311 1.526-.311.79 0 1.32.308 1.665.614.175.156.302.313.383.426.04.056.067.1.082.126.007.013.012.02.013.024a1 1 0 0 0 1.784-.904L15 9.4l.894-.448V8.95l-.002-.002-.002-.005-.005-.01-.016-.03-.049-.086c-.04-.07-.098-.16-.173-.267a4.565 4.565 0 0 0-.687-.765 4.42 4.42 0 0 0-2.993-1.12z"/>
  </symbol>
  <symbol id="atomic__skype" viewBox="0 0 24 24">
    <path d="M7.731 2a5.701 5.701 0 0 0-4.053 1.689A5.764 5.764 0 0 0 2 7.764c0 .978.244 1.868.678 2.978a9.64 9.64 0 0 0-.097 1.365c0 2.628 1.06 5.01 2.774 6.734a9.413 9.413 0 0 0 6.696 2.79c.223 0 .445-.008.678-.016l.164-.006c.246-.009.527-.017.88-.018.781.4 1.665.624 2.598.624a5.7 5.7 0 0 0 4.054-1.689 5.762 5.762 0 0 0 1.678-4.075c0-.98-.246-1.869-.679-2.976a9.65 9.65 0 0 0 .097-1.368c0-2.627-1.06-5.01-2.773-6.733a9.42 9.42 0 0 0-6.697-2.79c-.221 0-.443.009-.676.017l-.165.006c-.246.008-.527.016-.88.017A5.7 5.7 0 0 0 7.73 2zm4.236 4.667c-.732 0-1.68.117-2.483.555-.868.473-1.55 1.325-1.55 2.611 0 .619.165 1.178.543 1.634.36.435.836.682 1.276.842.437.16.929.264 1.39.355l.271.054c.39.076.775.152 1.177.252.868.217 1.158.385 1.269.495.042.043.14.143.14.702 0 .274-.123.53-.44.751-.337.236-.881.415-1.593.415-.988 0-1.611-.4-2.002-.79a2.917 2.917 0 0 1-.523-.72l-.016-.035-.001-.001a1 1 0 0 0-1.853.751v.002l.001.002.002.005.005.013c.004.009.01.02.015.034l.048.103a4.89 4.89 0 0 0 .908 1.26c.693.693 1.803 1.376 3.416 1.376 1.02 0 1.993-.253 2.74-.776.766-.537 1.293-1.365 1.293-2.39 0-.742-.12-1.509-.726-2.116-.54-.54-1.333-.805-2.198-1.021a25.059 25.059 0 0 0-1.295-.278l-.249-.05c-.467-.092-.82-.172-1.095-.272-.272-.1-.377-.187-.42-.238-.025-.03-.084-.11-.084-.359 0-.447.184-.678.508-.855.39-.212.957-.311 1.526-.311.79 0 1.32.308 1.665.614.175.156.302.313.383.426.04.056.067.1.082.126.007.013.012.02.013.024a1 1 0 0 0 1.784-.904V8.95l-.002-.002-.002-.005-.005-.01-.016-.03-.049-.086c-.04-.07-.098-.16-.173-.267a4.565 4.565 0 0 0-.687-.765 4.42 4.42 0 0 0-2.993-1.12z"/>
  </symbol>
  <symbol id="atomic__smile-o" viewBox="0 0 24 24">
    <circle cx="12" cy="12" r="9" stroke-width="2"/>
    <path stroke-width="2" d="M8.126 12a4.002 4.002 0 0 0 7.748 0"/>
    <circle cx="8.5" cy="8.5" r="1.5"/>
    <circle cx="15.5" cy="8.5" r="1.5"/>
  </symbol>
  <symbol id="atomic__smile" viewBox="0 0 24 24">
    <path d="M12 22c5.523 0 10-4.477 10-10S17.523 2 12 2 2 6.477 2 12s4.477 10 10 10zM8.5 10a1.5 1.5 0 1 0-.001-3.001A1.5 1.5 0 0 0 8.5 10zm3.5 4a3.003 3.003 0 0 1-2.906-2.25l-1.936.5a5.001 5.001 0 0 0 9.684 0l-1.936-.5A3.002 3.002 0 0 1 12 14zm5-5.5a1.5 1.5 0 1 1-3.001-.001A1.5 1.5 0 0 1 17 8.5z"/>
  </symbol>
  <symbol id="atomic__spinner" viewBox="0 0 24 24">
    <linearGradient id="atomic__SVGID_1_" gradientUnits="userSpaceOnUse" x1="21" y1="12" x2="3" y2="12">
      <stop offset=".178" style="stop-opacity:0"/>
      <stop offset=".227" style="stop-opacity:.1"/>
      <stop offset=".316" style="stop-opacity:.4"/>
      <stop offset=".453" style="stop-opacity:.7"/>
      <stop offset=".555"/>
      <stop offset=".928"/>
    </linearGradient>
    <path fill="url(#atomic__SVGID_1_)" d="M19.1 12c.1 4-3.1 7.2-7.1 7.2S4.8 16 4.8 12 8 4.8 12 4.8V3c-5 0-9 4-9 9s4 9 9 9 9-4 9-9h-1.9z"/>
  </symbol>
  <symbol id="atomic__star-o" viewBox="0 0 24 24">
    <path d="M12 4.527 9.877 9.56l-5.44.465 4.133 3.597-1.239 5.337 4.67-2.832 4.668 2.832-1.238-5.337 4.133-3.597-5.44-.465L12 4.527zm-1.382-1.87c.516-1.222 2.249-1.222 2.764 0l2.115 5.013 5.413.462c1.32.113 1.856 1.756.857 2.626l-4.116 3.583 1.235 5.323c.3 1.293-1.105 2.31-2.24 1.62L12 18.467l-4.646 2.819c-1.135.689-2.54-.329-2.24-1.622l1.236-5.322-4.116-3.583c-1-.87-.463-2.513.857-2.626l5.413-.462 2.114-5.012z"/>
  </symbol>
  <symbol id="atomic__star" viewBox="0 0 24 24">
    <path d="m8.651 7.783 2.124-4.979a1.334 1.334 0 0 1 2.45 0l2.123 4.979 5.435.459c.345.029.663.19.89.447a1.305 1.305 0 0 1-.13 1.855l-4.132 3.558 1.24 5.286c.078.334.021.685-.159.979-.38.62-1.198.819-1.826.442L12 18.01l-4.667 2.8a1.344 1.344 0 0 1-.99.157 1.315 1.315 0 0 1-.994-1.579l1.24-5.285-4.132-3.558a1.31 1.31 0 0 1-.452-.88 1.319 1.319 0 0 1 1.212-1.422l5.434-.46z"/>
  </symbol>
  <symbol id="atomic__success-o" viewBox="0 0 24 24">
    <path d="m21.735 6.678-12 13a1 1 0 0 1-1.41.06l-6-5.5 1.35-1.475 5.266 4.827L20.265 5.322l1.47 1.356z"/>
  </symbol>
  <symbol id="atomic__success" viewBox="0 0 24 24">
    <path d="m21.918 6.848-12 13a1.25 1.25 0 0 1-1.763.074l-6-5.5 1.69-1.843 5.081 4.658L20.081 5.152l1.837 1.696z"/>
  </symbol>
  <symbol id="atomic__suitcase-2-o" viewBox="0 0 24 24">
    <path stroke-width="2" d="M16.5 7V5a2 2 0 0 0-2-2h-5a2 2 0 0 0-2 2v2"/>
    <rect width="18" height="13" x="3" y="7" stroke-width="2" rx="2"/>
    <path stroke-width="2" d="m3 8 6 5h6l6-5"/>
  </symbol>
  <symbol id="atomic__suitcase-2" viewBox="0 0 24 24">
    <path d="M6.5 5c0-1.656 1.344-3 3-3h5c1.656 0 3 1.344 3 3v1H19c.756 0 1.446.28 1.974.74l-.607.485L14.639 12H9.362L3.649 7.24l-.596-.522A2.986 2.986 0 0 1 5 6h1.5V5zM2.043 8.491A3.058 3.058 0 0 0 2 9v9a3 3 0 0 0 3 3h14a3 3 0 0 0 3-3V9c0-.166-.014-.329-.04-.488l-.328.263L15.363 14H8.638L2.351 8.76l-.308-.269zM15.5 5v1h-7V5a1 1 0 0 1 1-1h5a1 1 0 0 1 1 1z"/>
  </symbol>
  <symbol id="atomic__suitcase-o" viewBox="0 0 24 24">
    <path stroke-width="2" d="M20.35 13v6.125c0 1.036-.789 1.875-1.76 1.875H5.41c-.973 0-1.76-.839-1.76-1.875V13M15.5 6V5a2 2 0 0 0-2-2h-3a2 2 0 0 0-2 2v1m11.3 7H4.2a1.17 1.17 0 0 1-.84-.358A1.268 1.268 0 0 1 3 11.75v-4.5c0-.348.136-.663.36-.892A1.17 1.17 0 0 1 4.2 6h15.6c.329 0 .625.138.84.358.224.229.36.544.36.892v4.5c0 .348-.136.664-.36.892a1.17 1.17 0 0 1-.84.358zM12 15.75V9.48"/>
  </symbol>
  <symbol id="atomic__suitcase" viewBox="0 0 24 24">
    <path d="M10.5 2a3 3 0 0 0-3 3H4.2c-.617 0-1.166.26-1.555.66A2.257 2.257 0 0 0 2 7.25v2.5c0 .612.24 1.178.644 1.591.39.399.94.659 1.556.659H10v-1h4v1h5.8c.616 0 1.166-.26 1.556-.659.403-.413.644-.979.644-1.591v-2.5c0-.613-.241-1.178-.645-1.59-.39-.4-.938-.66-1.555-.66h-3.3c0-1.656-1.344-3-3-3h-3zM10 14v1h4v-1h7.35v5.125c0 1.528-1.177 2.875-2.76 2.875H5.41c-1.583 0-2.76-1.347-2.76-2.875V14H10zm4.5-9h-5a1 1 0 0 1 1-1h3c.551 0 1 .448 1 1z"/>
  </symbol>
  <symbol id="atomic__tag-o" viewBox="0 0 24 24">
    <path d="M12.867 1.893a3.042 3.042 0 0 0-2.502-.873l-5.893.676a3.048 3.048 0 0 0-1.807.873l-.096.096a3.05 3.05 0 0 0-.873 1.807l-.676 5.893a3.045 3.045 0 0 0 .873 2.502l9.24 9.24a3.048 3.048 0 0 0 4.31 0l6.665-6.664a3.048 3.048 0 0 0 0-4.31l-9.241-9.24zm-2.274 1.114c.317-.037.634.074.86.3l9.24 9.24c.41.41.41 1.072 0 1.481l-6.665 6.665c-.409.41-1.072.41-1.48 0l-9.241-9.24a1.046 1.046 0 0 1-.3-.86L3.683 4.7c.027-.235.133-.454.3-.621l.096-.096c.167-.167.386-.273.62-.3l5.894-.676zm-.727 6.859a1.502 1.502 0 0 0 0-2.122 1.502 1.502 0 0 0-2.122 0 1.502 1.502 0 0 0 0 2.122 1.502 1.502 0 0 0 2.122 0z"/>
  </symbol>
  <symbol id="atomic__tag" viewBox="0 0 24 24">
    <path d="M10.479 2.013c.62-.07 1.24.145 1.68.587l9.241 9.24c.8.8.8 2.096 0 2.895L14.735 21.4c-.8.8-2.095.8-2.895 0L2.6 12.16a2.047 2.047 0 0 1-.587-1.681l.677-5.893c.053-.46.26-.887.586-1.214l.096-.096a2.049 2.049 0 0 1 1.214-.586l5.893-.677zm-.613 7.853a1.502 1.502 0 0 0 0-2.122 1.502 1.502 0 0 0-2.122 0 1.502 1.502 0 0 0 0 2.122 1.502 1.502 0 0 0 2.122 0z"/>
  </symbol>
  <symbol id="atomic__twitter-o" viewBox="0 0 24 24">
    <path d="M19.41 4.233a8.99 8.99 0 0 0 2.021-1.046.999.999 0 0 1 1.54 1.063 7.845 7.845 0 0 1-1.806 3.378c.01.13.017.26.017.39v.004c0 5.487-2.696 9.513-6.56 11.53-3.837 2.004-8.736 1.98-13.1-.398a1 1 0 0 1 .517-1.877 9.77 9.77 0 0 0 4.205-.772c-1.282-.81-2.22-1.76-2.882-2.786-.926-1.433-1.275-2.952-1.338-4.314-.063-1.356.157-2.576.387-3.45a11.624 11.624 0 0 1 .444-1.345l.036-.084.01-.025.004-.008.001-.003h.001c0-.001 0-.002.911.41l-.91-.412a1 1 0 0 1 1.723-.169c1.483 2.07 3.82 3.378 6.37 3.593.034-2.047 1.333-3.861 3.269-4.586a5.138 5.138 0 0 1 5.14.907zM4.237 6.913a9.405 9.405 0 0 0-.215 2.4c.05 1.09.326 2.247 1.02 3.321.69 1.07 1.834 2.119 3.721 2.942a.999.999 0 0 1 .155 1.748c-.902.602-1.88 1.07-2.903 1.398 2.732.59 5.446.225 7.681-.943 3.182-1.66 5.485-4.99 5.486-9.756 0-.184-.019-.369-.054-.55a1 1 0 0 1 .286-.91c.107-.104.21-.211.308-.322a9.925 9.925 0 0 1-.293.091 1.001 1.001 0 0 1-1.032-.295 3.125 3.125 0 0 0-3.426-.838c-1.21.454-1.988 1.591-1.971 2.836v.905a1 1 0 0 1-.975 1 10.796 10.796 0 0 1-7.788-3.026z"/>
  </symbol>
  <symbol id="atomic__twitter" viewBox="0 0 24 24">
    <path d="M19.293 4.804a4.633 4.633 0 0 0-4.848-1.01c-1.789.67-2.97 2.367-2.945 4.258v.388c-2.9-.077-5.6-1.492-7.275-3.83a.5.5 0 0 0-.862.084l.455.207-.455-.207v.002l-.002.002-.002.006-.01.021-.032.076a11.349 11.349 0 0 0-.423 1.282c-.221.84-.43 2.008-.37 3.3.06 1.293.39 2.721 1.258 4.065.747 1.157 1.878 2.229 3.53 3.095a10.235 10.235 0 0 1-5.292 1.233.5.5 0 0 0-.259.939c4.227 2.303 8.95 2.315 12.63.394 3.693-1.928 6.29-5.78 6.29-11.087V8.02c0-.19-.013-.379-.037-.566a7.344 7.344 0 0 0 1.841-3.324.501.501 0 0 0-.77-.532c-.744.515-1.56.92-2.422 1.206z"/>
  </symbol>
  <symbol id="atomic__upload-o" viewBox="0 0 24 24">
    <mask id="atomic__0022mq51qa">
      <path d="m15.656 8.377.25 1.462 1.473.184a3 3 0 0 1-.077 5.962l-.15.015H15v2h2.5v-.025a5 5 0 0 0 .127-9.936 6.074 6.074 0 0 0-11.778-.787A5.5 5.5 0 0 0 7.5 18H9v-2H7.5a3.5 3.5 0 0 1-1.052-6.84l.997-.313.312-.996a4.073 4.073 0 0 1 7.899.526z"/>
    </mask>
    <path d="m15.906 9.84-1.971.337.25 1.463 1.473.184.248-1.985zm-.25-1.463-1.972.337 1.972-.337zm1.723 1.646-.249 1.985.249-1.984zm-.077 5.962.198 1.99-.198-1.99zm-.15.015v2h.1l.098-.01-.198-1.99zM15 16v-2h-2v2h2zm0 2h-2v2h2v-2zm2.5 0v2h2v-2h-2zm0-.025-.198-1.99-1.802.18v1.81h2zm.127-9.936-1.971.338.25 1.462 1.473.184.248-1.984zM5.849 7.252l.6 1.908.996-.313.312-.996-1.908-.599zM9 18v2h2v-2H9zm0-2h2v-2H9v2zM6.448 9.16l-.6-1.908.6 1.908zm.997-.313.6 1.908.995-.313.313-.996-1.908-.599zm.312-.996 1.908.598-1.908-.598zm10.12 1.65-.25-1.462-3.943.675.25 1.463 3.943-.675zm-.25-1.462-1.473-.184-.496 3.969 1.472.184.497-3.97zM22 13a5.002 5.002 0 0 0-4.373-4.961l-.497 3.969A1 1 0 0 1 18 13h4zm-4.5 4.975A5 5 0 0 0 22 13h-4c0 .518-.396.945-.895.995l.395 3.98zm-.15.015.15-.015-.395-3.98-.15.015.395 3.98zM17 18h.152v-4H17v4zm-2 0h2v-4h-2v4zm-2-2v2h4v-2h-4zm2.5 0H15v4h.5v-4zm1.5 0h-1.5v4H17v-4zm.5 0H17v4h.5v-4zm-2 1.975V18h4v-.025h-4zM20 13a3 3 0 0 1-2.698 2.985l.396 3.98A6.998 6.998 0 0 0 24 13h-4zm-2.621-2.976A2.999 2.999 0 0 1 20 13h4a7.001 7.001 0 0 0-6.125-6.946l-.496 3.97zM11.643 5c2.01 0 3.684 1.46 4.013 3.377l3.942-.676A8.073 8.073 0 0 0 11.643 1v4zM7.757 7.85A4.075 4.075 0 0 1 11.643 5V1A8.076 8.076 0 0 0 3.94 6.654L7.757 7.85zM4 12.5a3.503 3.503 0 0 1 2.448-3.34l-1.2-3.816A7.504 7.504 0 0 0 0 12.5h4zM7.5 16A3.5 3.5 0 0 1 4 12.5H0A7.5 7.5 0 0 0 7.5 20v-4zM9 16H7.5v4H9v-4zm2 2v-2H7v2h4zm-3.5 0H9v-4H7.5v4zM2 12.5A5.5 5.5 0 0 0 7.5 18v-4A1.5 1.5 0 0 1 6 12.5H2zm3.849-5.248A5.503 5.503 0 0 0 2 12.5h4c0-.668.439-1.24 1.048-1.432l-1.2-3.816zm.996-.313-.996.313 1.2 3.816.995-.313-1.2-3.816zm-.996.313-.313.996 3.817 1.198.312-.997L5.85 7.252zM11.643 3a6.075 6.075 0 0 0-5.794 4.252L9.665 8.45A2.076 2.076 0 0 1 11.643 7V3zm5.984 5.039A6.073 6.073 0 0 0 11.643 3v4c1.022 0 1.875.743 2.041 1.714l3.943-.675z" mask="url(#atomic__0022mq51qa)"/>
    <path stroke-width="2" d="M12 10.38V21m3.314-7.802-3.12-3.1a.337.337 0 0 0-.474 0l-3.12 3.1"/>
  </symbol>
  <symbol id="atomic__upload" viewBox="0 0 24 24">
    <path d="M22 13a5 5 0 0 0-4.373-4.961 6.074 6.074 0 0 0-11.778-.787A5.5 5.5 0 0 0 7.5 18H11v4h2v-4h4.5v-.025A5 5 0 0 0 22 13zm-9 5h-2v-5.777l-1.695 1.684-1.41-1.419 3.12-3.1a1.337 1.337 0 0 1 1.883 0l3.121 3.1-1.41 1.42-1.609-1.6V18z"/>
  </symbol>
  <symbol id="atomic__warning-o" viewBox="0 0 24 24">
    <path d="M19.764 20 12 4.472 4.236 20h15.528zM13.789 3.578c-.737-1.474-2.84-1.474-3.578 0L2.447 19.106C1.782 20.436 2.75 22 4.236 22h15.528c1.487 0 2.454-1.565 1.789-2.894L13.789 3.578zM10.999 14.5V10h2v4.5h-2zm0 1.5v2h2v-2h-2z"/>
  </symbol>
  <symbol id="atomic__warning" viewBox="0 0 24 24">
    <path d="M13.789 3.578c-.737-1.474-2.84-1.474-3.578 0L2.447 19.106C1.782 20.436 2.75 22 4.236 22h15.528c1.487 0 2.454-1.565 1.789-2.894L13.789 3.578zM10.96 15V9H13v6h-2.04zm.04 2h2.038v2.054H11V17z"/>
  </symbol>
  <symbol id="atomic__website-o" viewBox="0 0 24 24">
    <path d="M8.409 4.85a8.022 8.022 0 0 0-2.066 1.493 7.975 7.975 0 0 0-2.278 4.629h2.847c.117-2.28.62-4.366 1.42-5.973l.077-.15zM12 2a9.97 9.97 0 0 0-7.071 2.93C3.121 6.737 2 9.238 2 12s1.12 5.262 2.929 7.07C6.738 20.88 9.239 22 12 22s5.263-1.12 7.071-2.929C20.88 17.263 22 14.761 22 12s-1.12-5.263-2.929-7.071A9.97 9.97 0 0 0 12 2zm3.592 2.85.076.15c.8 1.606 1.304 3.693 1.421 5.972h2.846a7.972 7.972 0 0 0-2.278-4.629 8.04 8.04 0 0 0-2.065-1.493zm-.506 6.122c-.115-2.017-.564-3.788-1.208-5.081-.357-.718-.747-1.235-1.13-1.554C12.437 4.08 12.192 4 12 4c-.192 0-.438.08-.746.337-.385.32-.774.836-1.131 1.554-.644 1.294-1.093 3.064-1.209 5.08h6.172zm-6.175 2h6.179c-.11 2.04-.562 3.831-1.212 5.137-.357.718-.747 1.235-1.13 1.554-.31.257-.555.337-.748.337-.192 0-.438-.08-.746-.337-.385-.32-.774-.836-1.131-1.554-.65-1.306-1.102-3.098-1.212-5.138zm-2.002 0h-2.85a7.972 7.972 0 0 0 2.284 4.685 8.025 8.025 0 0 0 2.066 1.494L8.332 19c-.806-1.62-1.312-3.729-1.423-6.03zm8.683 6.179.076-.15c.807-1.62 1.313-3.728 1.424-6.03h2.85a7.973 7.973 0 0 1-2.285 4.686 8.044 8.044 0 0 1-2.065 1.494z"/>
  </symbol>
  <symbol id="atomic__website" viewBox="0 0 24 24">
    <path d="M6.52 6.52a7.822 7.822 0 0 1 1.326-1.064c-.639 1.491-1.046 3.307-1.17 5.266H4.354A7.727 7.727 0 0 1 6.519 6.52zm-2.174 6.702A7.72 7.72 0 0 0 6.52 17.48c.401.401.846.758 1.326 1.064-.645-1.506-1.054-3.342-1.174-5.322H4.346zM12 22.25c2.83 0 5.394-1.149 7.248-3.002C21.1 17.394 22.25 14.83 22.25 12s-1.149-5.394-3.002-7.248C17.394 2.9 14.83 1.75 12 1.75S6.606 2.899 4.752 4.752C2.9 6.606 1.75 9.17 1.75 12s1.149 5.394 3.002 7.248A10.23 10.23 0 0 0 12 22.25zm4.155-3.706c.645-1.506 1.054-3.343 1.174-5.322h2.325a7.776 7.776 0 0 1-3.499 5.322zm3.49-7.822a7.776 7.776 0 0 0-3.49-5.266c.639 1.491 1.046 3.307 1.17 5.266h2.32zM12 4.25c-.117 0-.308.047-.587.279-.348.29-.719.775-1.066 1.473-.599 1.202-1.03 2.841-1.166 4.72h5.639c-.137-1.879-.567-3.518-1.166-4.72-.348-.698-.718-1.183-1.067-1.473-.279-.232-.47-.279-.587-.279zm1.654 13.748c.605-1.214 1.038-2.874 1.17-4.777H9.177c.132 1.903.565 3.563 1.17 4.777.348.698.718 1.183 1.066 1.473.28.232.47.279.587.279.117 0 .308-.047.587-.28.349-.29.72-.774 1.067-1.472z"/>
  </symbol>
  <symbol id="atomic__x-micro-o" viewBox="0 0 24 24">
    <path d="m12.063 13.124 3.842 3.842 1.061-1.06-3.842-3.843 3.842-3.842-1.06-1.06-3.843 3.842L8.221 7.16 7.16 8.22l3.841 3.842-3.842 3.843 1.06 1.06 3.843-3.842z"/>
  </symbol>
  <symbol id="atomic__x-micro" viewBox="0 0 24 24">
    <path d="M12 22c5.523 0 10-4.477 10-10S17.523 2 12 2 2 6.477 2 12s4.477 10 10 10zm-2.886-6L12 13.114 14.886 16 16 14.886 13.114 12 16 9.114 14.886 8 12 10.886 9.114 8 8 9.114 10.886 12 8 14.886 9.114 16z"/>
  </symbol>
  <symbol id="atomic__x-o" viewBox="0 0 24 24">
    <path d="m12.177 13.237 6.364 6.364 1.414-1.414-6.364-6.364 6.187-6.187-1.414-1.414-6.187 6.187-6.364-6.364-1.415 1.414 6.364 6.364-6.54 6.541 1.414 1.414 6.54-6.54z"/>
  </symbol>
  <symbol id="atomic__x" viewBox="0 0 24 24">
    <path stroke-linejoin="round" stroke-width="2.5" d="m5.105 4.752 14.143 14.142M19.07 4.929 4.93 19.07"/>
  </symbol>
</svg>
