<svg xmlns="http://www.w3.org/2000/svg">
  <symbol id="atomic__arrow-left-solid" viewBox="0 0 24 24">
    <path d="m7.1 11.1 8-8 1.8 1.8L9.8 12l7.1 7.1-1.8 1.8-8-8c-.2-.2-.4-.6-.4-.9.1-.3.2-.7.4-.9z"/>
  </symbol>
  <symbol id="atomic__arrow-left" viewBox="0 0 24 24">
    <path d="m7.3 11.3 8-8 1.4 1.4L9.4 12l7.3 7.3-1.4 1.4-8-8c-.2-.2-.3-.4-.3-.7 0-.3.1-.5.3-.7z"/>
  </symbol>
  <symbol id="atomic__arrow-right-solid" viewBox="0 0 24 24">
    <path d="m8.6 20.9-1.8-1.8 7.1-7.1-7.1-7.1 1.8-1.8 8 8c.5.5.5 1.3 0 1.8l-8 8z"/>
  </symbol>
  <symbol id="atomic__arrow-right" viewBox="0 0 24 24">
    <path d="m16.4 12.7-8 8L7 19.3l7.3-7.3L7 4.7l1.4-1.4 8 8c.2.2.3.4.3.7 0 .3-.1.5-.3.7z"/>
  </symbol>
  <symbol id="atomic__avatar-solid" viewBox="0 0 24 24">
    <path d="M6.3 8c0-3.2 2.6-5.8 5.8-5.8s5.8 2.6 5.8 5.8-2.6 5.8-5.8 5.8S6.3 11.2 6.3 8zM3 22.8c-.4 0-.8-.3-.8-.8v-1.1c0-3.3 4.1-5.6 9.8-5.6s9.8 2.4 9.8 5.6V22c0 .4-.3.8-.8.8H3z"/>
  </symbol>
  <symbol id="atomic__avatar" viewBox="0 0 24 24">
    <path d="M8 8c0 2.2 1.8 4 4 4s4-1.8 4-4-1.8-4-4-4-4 1.8-4 4zM6 8c0-3.3 2.7-6 6-6s6 2.7 6 6-2.7 6-6 6-6-2.7-6-6zM4 22H2v-1.1C2 17.4 6.2 15 12 15s10 2.4 10 5.9V22h-2v-1.1c0-2.1-3.2-3.9-8-3.9s-8 1.8-8 3.9V22z"/>
  </symbol>
  <symbol id="atomic__bell-solid" viewBox="0 0 24 24">
    <path d="M14.9 21.3c-.3 1.3-1.5 2.3-2.9 2.3s-2.6-1-2.9-2.3h5.8zM10 4.3V2.8c0-1 .9-1.8 2-1.8s2 .8 2 1.8v1.5c3.1.8 5 3.6 5 7v4.4l1.6 1.6c.2.2.4.5.4.9v.7c0 .7-.5 1.2-1.2 1.2H4.2C3.5 20 3 19.5 3 18.8v-.7c0-.3.1-.6.4-.9L5 15.7v-4.4c0-3.4 1.9-6.2 5-7z"/>
  </symbol>
  <symbol id="atomic__bell" viewBox="0 0 24 24">
    <path d="M13 4.1c0-.7-.4-1.1-1-1.1s-1 .4-1 1v.1c.3-.1.7-.1 1-.1.3 0 .7 0 1 .1zm-4 .5V4c0-1.7 1.3-3 3-3s3 1.3 3 3v.6c2.5 1.1 4 3.6 4 6.7v4.4l1.6 1.6c.2.2.4.5.4.9v.7c0 .7-.5 1.2-1.2 1.2h-3.9c-.4 1.7-2 3-3.9 3s-3.4-1.3-3.9-3H4.2C3.5 20 3 19.5 3 18.8v-.7c0-.3.1-.6.4-.9L5 15.7v-4.4c0-3.1 1.5-5.6 4-6.7zM10.3 20c.3.6 1 1 1.7 1s1.4-.4 1.7-1h-3.4zm7.3-2.9c-.4-.4-.6-.9-.6-1.4v-4.4c0-2.6-1.4-4.6-3.7-5.1-.4-.2-.9-.2-1.3-.2s-.9 0-1.3.1C8.4 6.7 7 8.6 7 11.3v4.4c0 .5-.2 1-.6 1.4l-.9.9h13.1l-1-.9z"/>
  </symbol>
  <symbol id="atomic__cart-solid" viewBox="0 0 24 24">
    <path d="M6.5 6h14.1c.8.2 1.3 1 1.1 1.8l-1.5 6c-.2.7-.8 1.2-1.5 1.2H7.8c-.7 0-1.3-.5-1.5-1.1l-2-8.1c0-.5-.4-.8-.9-.8H2V3h1.4c1.4 0 2.6.9 2.9 2.3l.2.7z"/>
    <circle cx="8.5" cy="18.5" r="2.5"/>
    <circle cx="17.5" cy="18.5" r="2.5"/>
  </symbol>
  <symbol id="atomic__cart" viewBox="0 0 24 24">
    <path d="m19.9 6.7 1.9.5-1.7 6.6c-.1.7-.7 1.2-1.4 1.2H7.8c-.7 0-1.3-.5-1.5-1.1l-2-8.1c0-.5-.4-.8-.9-.8H2V3h1.4c1.4 0 2.6.9 2.9 2.3L8.2 13h10.1l1.6-6.3zM8 22c-1.7 0-3-1.3-3-3s1.3-3 3-3 3 1.3 3 3-1.3 3-3 3zm0-2c.6 0 1-.4 1-1s-.4-1-1-1-1 .4-1 1 .4 1 1 1zm10 2c-1.7 0-3-1.3-3-3s1.3-3 3-3 3 1.3 3 3-1.3 3-3 3zm0-2c.6 0 1-.4 1-1s-.4-1-1-1-1 .4-1 1 .4 1 1 1z"/>
  </symbol>
  <symbol id="atomic__chat-solid" viewBox="0 0 24 24">
    <path d="M8 2.3c-3.3 0-6 2.7-6 6v4.1c0 3.1 2.5 5.5 5.5 5.5.5 0 .9.4.9.9l.1 2.6c0 .4.3.8.7.8.2 0 .4-.1.6-.2l3.2-3.8c.2-.2.5-.3.8-.3H16c3.3 0 6-2.7 6-6V8.3c0-3.3-2.7-6-6-6H8z"/>
  </symbol>
  <symbol id="atomic__chat" viewBox="0 0 24 24">
    <path d="M9.8 22.1c-.2.2-.4.2-.6.2-.4 0-.7-.4-.7-.8l-.1-2.6c0-.5-.4-.9-.9-.9-3 0-5.5-2.5-5.5-5.5V8.3c0-3.3 2.7-6 6-6h8c3.3 0 6 2.7 6 6v3.6c0 3.3-2.7 6-6 6h-2.2c-.3 0-.6.1-.8.3l-3.2 3.9zm.6-3.8 1.1-1.3c.6-.7 1.4-1 2.3-1H16c2.2 0 4-1.8 4-4V8.3c0-2.2-1.8-4-4-4H8c-2.2 0-4 1.8-4 4v4.1c0 1.9 1.6 3.5 3.5 3.5 1.4 0 2.6 1 2.9 2.4z"/>
  </symbol>
  <symbol id="atomic__dashboard-solid" viewBox="0 0 24 24">
    <path d="M14 9c-.6 0-1-.4-1-1V3c0-.6.4-1 1-1h7c.6 0 1 .4 1 1v5c0 .6-.4 1-1 1h-7zM3 13c-.6 0-1-.4-1-1V3c0-.6.4-1 1-1h7c.6 0 1 .4 1 1v9c0 .6-.4 1-1 1H3zm11 9c-.6 0-1-.4-1-1v-9c0-.6.4-1 1-1h7c.6 0 1 .4 1 1v9c0 .6-.4 1-1 1h-7zM3 22c-.6 0-1-.4-1-1v-5c0-.6.4-1 1-1h7c.6 0 1 .4 1 1v5c0 .6-.4 1-1 1H3z"/>
  </symbol>
  <symbol id="atomic__dashboard" viewBox="0 0 24 24">
    <path d="M9.7 16.5H3.5v4h6.3v-4h-.1zm0-1.5c.8 0 1.5.7 1.5 1.5v4c0 .8-.7 1.5-1.5 1.5H3.5c-.8 0-1.5-.7-1.5-1.5v-4c0-.8.7-1.5 1.5-1.5h6.2zm0-11.5H3.5V12h6.3c-.1 0-.1-8.5-.1-8.5zm0-1.5c.8 0 1.5.7 1.5 1.5V12c0 .8-.7 1.5-1.5 1.5H3.5c-.8 0-1.5-.7-1.5-1.5V3.5C2 2.7 2.7 2 3.5 2h6.2zm10.8 1.5h-6.3v4h6.3v-4zm0-1.5c.8 0 1.5.7 1.5 1.5v4c0 .8-.7 1.5-1.5 1.5h-6.3c-.8 0-1.5-.7-1.5-1.5v-4c0-.8.7-1.5 1.5-1.5h6.3zm0 10h-6.3v8.5h6.3V12zm0-1.5c.8 0 1.5.7 1.5 1.5v8.5c0 .8-.7 1.5-1.5 1.5h-6.3c-.8 0-1.5-.7-1.5-1.5V12c0-.8.7-1.5 1.5-1.5h6.3z"/>
  </symbol>
  <symbol id="atomic__dislike" viewBox="0 0 24 24">
    <path d="M18.3 4.3v8.3c0 .7.5 1.2 1.3 1.2h1.1c.7.1 1.2-.6 1.2-1.2V4.3c.1-.7-.5-1.3-1.2-1.3h-1.1c-.7 0-1.3.6-1.3 1.3M14 3H6.6c-.8 0-1.5.5-1.7 1.2l-2.8 6.3c-.1.2-.1.4-.1.7V13c0 1 .8 1.8 1.8 1.8h4.9c.4 0 .8.4.7.9l-.7 3.2v.3c0 .3.1.7.4 1l.4.4c.3.3.8.3 1 0l5.4-5.6c.3-.3.5-.8.5-1.2V5.6c.1-1.4-1-2.6-2.4-2.6"/>
  </symbol>
  <symbol id="atomic__external-solid" viewBox="0 0 24 24">
    <path d="M6 5.3c-.4 0-.7.3-.7.7v12c0 .4.3.8.8.8h12c.4 0 .8-.3.8-.8v-3.1h2.5V18c0 1.8-1.5 3.3-3.3 3.3H6c-1.8 0-3.3-1.5-3.3-3.3V6c0-1.8 1.5-3.3 3.3-3.3h3.4v2.5H6z"/>
    <path d="m18.8 7-5.9 5.9-1.8-1.8L17 5.3h-3V2.8h5c1.2 0 2.3 1 2.3 2.3v5h-2.5V7z"/>
  </symbol>
  <symbol id="atomic__external" viewBox="0 0 24 24">
    <path d="M6 5c-.6 0-1 .4-1 1v12c0 .6.4 1 1 1h12c.6 0 1-.4 1-1v-3.1h2V18c0 1.7-1.3 3-3 3H6c-1.7 0-3-1.3-3-3V6c0-1.7 1.3-3 3-3h3.4v2H6z"/>
    <path d="m19 6.4-6.3 6.3-1.4-1.4L17.6 5H14V3h5c1.1 0 2 .9 2 2v5h-2V6.4z"/>
  </symbol>
  <symbol id="atomic__filter-solid" viewBox="0 0 24 24">
    <path d="M5.1 18H2v-2h3.1c.4-1.4 1.8-2.5 3.4-2.5s2.9 1.1 3.4 2.5H22v2H11.9c-.4 1.4-1.8 2.5-3.4 2.5S5.6 19.4 5.1 18zM18.9 8c-.4 1.4-1.8 2.5-3.4 2.5S12.6 9.4 12.1 8H2V6h10.1c.4-1.4 1.8-2.5 3.4-2.5s2.9 1.1 3.4 2.5H22v2h-3.1z"/>
  </symbol>
  <symbol id="atomic__filter" viewBox="0 0 24 24">
    <path d="M16.5 8.5c.8 0 1.5-.7 1.5-1.5s-.7-1.5-1.5-1.5S15 6.2 15 7s.7 1.5 1.5 1.5zm3.4-.5c-.4 1.4-1.8 2.5-3.4 2.5S13.6 9.4 13.1 8H2V6h11.1c.4-1.4 1.8-2.5 3.4-2.5s2.9 1.1 3.4 2.5H22v2h-2.1zM4.1 17.8H2v-1.5h2.1c.3-1.6 1.7-2.8 3.4-2.8 1.6 0 2.9 1.1 3.4 2.5H22v2H10.9c-.4 1.4-1.8 2.5-3.4 2.5-1.7 0-3.1-1.2-3.4-2.7zm3.4.7c.8 0 1.5-.7 1.5-1.5s-.7-1.5-1.5-1.5S6 16.2 6 17s.7 1.5 1.5 1.5z"/>
  </symbol>
  <symbol id="atomic__heart-solid" viewBox="0 0 24 24">
    <path d="M13.3 18.9c4.7-4.1 5.9-5.4 6.9-7.2.5-1 .8-1.9.8-2.9C21 6.1 18.8 4 16.1 4c-1.1 0-2.3.4-3.2 1.1l-.9.6-.9-.6c-.9-.7-2-1.1-3.2-1.1C5.2 4 3 6.1 3 8.8c0 1 .3 1.9.8 2.9 1 1.8 2.2 3.1 6.9 7.2L12 20l1.3-1.1z"/>
  </symbol>
  <symbol id="atomic__heart" viewBox="0 0 24 24">
    <path d="m12 20.3-.7-.6-1.1-1c-4.3-3.7-5.4-4.9-6.4-6.6-.6-1-.8-2-.8-3C3 6.3 5.4 4 8.4 4c1.2 0 2.5.4 3.5 1.1l.1.2.2-.1c1-.7 2.2-1.1 3.5-1.1 3 0 5.4 2.3 5.4 5.2 0 1-.3 2-.9 3-1 1.7-2.1 2.9-6.4 6.6L12 20.3zm.5-3c4.1-3.5 5.1-4.6 5.9-6 .4-.7.6-1.4.6-2C19 7.4 17.5 6 15.6 6c-.8 0-1.6.3-2.3.7l-1.3 1-1.3-1C10 6.3 9.2 6 8.4 6 6.5 6 5 7.4 5 9.2c0 .7.2 1.3.6 2 .8 1.4 1.8 2.5 5.9 6l.5.4.5-.3z"/>
  </symbol>
  <symbol id="atomic__home-solid" viewBox="0 0 24 24">
    <path d="M20.8 11.5V21c0 .7-.6 1.3-1.3 1.3H15c-.7 0-1.3-.6-1.3-1.3v-3.6c0-1-.8-1.8-1.8-1.8s-1.8.8-1.8 1.8V21c0 .7-.6 1.3-1.3 1.3H4.5c-.7 0-1.3-.6-1.3-1.3v-9.5l-.6.5-1.3-1.5 10-8.8c.4-.3.9-.3 1.3 0l10 8.8-1.3 1.5-.5-.5z"/>
  </symbol>
  <symbol id="atomic__home" viewBox="0 0 24 24">
    <path d="M21 11.8V21c0 .8-.7 1.5-1.5 1.5H15c-.8 0-1.5-.7-1.5-1.5v-3.6c0-.8-.7-1.5-1.5-1.5s-1.5.7-1.5 1.5V21c0 .8-.7 1.5-1.5 1.5H4.5c-.8 0-1.5-.7-1.5-1.5v-9.2l-.3.3-1.3-1.5 10-8.8c.4-.3.9-.3 1.3 0l10 8.8-1.3 1.5-.4-.3zM19 10l-7-6.2L5 10v10.5h3.5v-3.1c0-1.9 1.6-3.5 3.5-3.5s3.5 1.6 3.5 3.5v3.1H19V10z"/>
  </symbol>
  <symbol id="atomic__idea-solid" viewBox="0 0 24 24">
    <path d="M9 21h6v2H9zm3-15.7c-3.7 0-6.8 3-6.8 6.8 0 2 .9 3.9 2.5 5.2.5.5.9 1.1.9 1.8 0 .5.5.9 1 .9h4.6c.5 0 1-.4 1-.9.1-.7.4-1.5 1-1.9 1.5-1.3 2.4-3.2 2.4-5.2.2-3.7-2.9-6.7-6.6-6.7zm8 5.7h2v2h-2zM2 11h2v2H2z"/>
    <path transform="rotate(-45.001 18.197 5.707)" d="M17.2 4.7h2v2h-2z"/>
    <path transform="rotate(-45.001 5.697 5.707)" d="M4.7 4.7h2v2h-2z"/>
    <path d="M11 2h2v2h-2z"/>
  </symbol>
  <symbol id="atomic__idea" viewBox="0 0 24 24">
    <path d="M11 2h2v2h-2zm4.1 13.6a4.6 4.6 0 0 0 1.7-3.6c0-2.6-2.1-4.8-4.8-4.8S7.3 9.4 7.3 12c0 1.4.6 2.8 1.8 3.7.7.6 1.2 1.4 1.5 2.3h3c.2-.9.7-1.8 1.5-2.4zM9.4 20c-.4 0-.7-.3-.7-.7 0-.8-.4-1.6-1-2.1C6.2 16 5.3 14.1 5.3 12c0-3.7 3-6.8 6.8-6.8 3.7 0 6.8 3 6.8 6.8 0 2-.9 3.9-2.4 5.2-.6.5-1 1.3-1 2.1 0 .4-.3.7-.7.7H9.4zM9 21h6v2H9zm11-10h2v2h-2zM2 11h2v2H2z"/>
    <path transform="rotate(-45.001 5.707 5.707)" d="M4.7 4.7h2v2h-2z"/>
    <path transform="rotate(-45.001 18.293 5.706)" d="M17.3 4.7h2v2h-2z"/>
  </symbol>
  <symbol id="atomic__info-solid" viewBox="0 0 24 24">
    <path d="M12 2c5.5 0 10 4.5 10 10s-4.5 10-10 10S2 17.5 2 12 6.5 2 12 2zm-1 9.1v5.4h2v-5.4h-2zm0-3.6v1.8h2V7.5h-2z"/>
  </symbol>
  <symbol id="atomic__info" viewBox="0 0 24 24">
    <path d="M12 2c5.5 0 10 4.5 10 10s-4.5 10-10 10S2 17.5 2 12 6.5 2 12 2zm0 2c-4.4 0-8 3.6-8 8s3.6 8 8 8 8-3.6 8-8-3.6-8-8-8z"/>
    <path d="M11 11.1h2v5.4h-2zm0-3.6h2v1.8h-2z"/>
  </symbol>
  <symbol id="atomic__like" viewBox="0 0 24 24">
    <path d="M5.7 19.7v-8.3c0-.7-.6-1.2-1.3-1.2H3.2c-.6-.1-1.2.5-1.2 1.2v8.3c0 .7.5 1.2 1.3 1.2h1.1c.7.1 1.3-.5 1.3-1.2M10 21h7.4c.8 0 1.4-.4 1.7-1.1l2.8-6.3c.1-.2.1-.4.1-.7V11c0-1-.8-1.8-1.8-1.8h-4.9c-.4 0-.8-.4-.7-.9l.7-3.2v-.4c0-.3-.1-.7-.4-1l-.4-.4c-.3-.3-.8-.3-1 0L8 8.9c-.3.3-.6.8-.6 1.2v8.3c0 1.4 1.2 2.6 2.6 2.6"/>
  </symbol>
  <symbol id="atomic__location-solid" viewBox="0 0 24 24">
    <path d="M9.7 8.5c0 1 .8 1.9 1.8 1.9s1.9-.9 1.9-1.9c0-1-.8-1.8-1.9-1.8-1 0-1.8.8-1.8 1.8zm-5.4-.1c0-4 3.2-7.2 7.2-7.2s7.3 3.2 7.3 7.2c0 1.8-.7 3.4-2.2 5.5-.2.3-.3.4-.6.9-.1.2-.3.4-.4.6-1.4 2-2.5 4.4-3.1 7-.1.3-.3.6-.7.7-.5.1-1-.2-1.2-.7-.7-2.7-1.8-5-3.2-7l-.4-.5c-1.3-1.8-1.7-2.5-2.1-3.4-.4-.9-.6-1.9-.6-3.1z"/>
  </symbol>
  <symbol id="atomic__location" viewBox="0 0 24 24">
    <path d="M10 8.5c0 .9.7 1.7 1.5 1.7.9 0 1.6-.7 1.6-1.7 0-.9-.7-1.6-1.6-1.6-.8.1-1.5.8-1.5 1.6zm-2 0C8 6.6 9.6 5 11.5 5c2 0 3.6 1.5 3.6 3.6 0 2-1.6 3.7-3.6 3.7C9.6 12.2 8 10.5 8 8.5z"/>
    <path d="M4 8.4C4 4.3 7.3 1 11.5 1 15.6 1 19 4.3 19 8.4c0 1.8-.7 3.5-2.2 5.7-.2.3-.3.4-.6.9-.1.2-.3.4-.4.6-1.4 2-2.4 4.3-3.1 6.9-.1.4-.4.7-.8.9-.6.2-1.3-.2-1.5-.8-.7-2.6-1.8-5-3.1-6.9l-.5-.7c-1.3-1.8-1.8-2.5-2.2-3.4-.4-1-.6-2-.6-3.2zm10.1 6c.1-.2.3-.4.4-.6.3-.4.4-.6.6-.9C16.4 11 17 9.7 17 8.4c0-3-2.5-5.4-5.5-5.4C8.4 3 6 5.4 6 8.4c0 .9.2 1.6.5 2.4.3.7.7 1.3 2 3.1l.4.5c1.1 1.5 1.9 3.3 2.6 5.1.7-1.8 1.6-3.5 2.6-5.1z"/>
  </symbol>
  <symbol id="atomic__lock-solid" viewBox="0 0 24 24">
    <path d="M12 3c2.8 0 5 2.2 5 5v2h2v9c0 1.1-.9 2-2 2H7c-1.1 0-2-.9-2-2v-9h2V8c0-2.8 2.2-5 5-5zm0 2c-1.7 0-3 1.3-3 3v2h6V8c0-1.7-1.3-3-3-3zm0 9c-.6 0-1 .4-1 1v1c0 .6.4 1 1 1s1-.4 1-1v-1c0-.6-.4-1-1-1z"/>
  </symbol>
  <symbol id="atomic__lock" viewBox="0 0 24 24">
    <path d="M12 3c2.8 0 5 2.2 5 5v2h2v9c0 1.1-.9 2-2 2H7c-1.1 0-2-.9-2-2v-9h2V8c0-2.8 2.2-5 5-5zm-5 9v6c0 .6.4 1 1 1h8c.6 0 1-.4 1-1v-6H7zm5-7c-1.7 0-3 1.3-3 3v2h6V8c0-1.7-1.3-3-3-3z"/>
    <path d="M12 14c.6 0 1 .4 1 1v1c0 .6-.4 1-1 1s-1-.4-1-1v-1c0-.6.4-1 1-1z"/>
  </symbol>
  <symbol id="atomic__menu-solid" viewBox="0 0 24 24">
    <path d="M2 5.3h20V2.8H2v2.5zm0 8h20v-2.5H2v2.5zm20 8H2v-2.5h20v2.5z"/>
  </symbol>
  <symbol id="atomic__menu" viewBox="0 0 24 24">
    <path d="M2 5h20V3H2v2zm0 8h20v-2H2v2zm20 8H2v-2h20v2z"/>
  </symbol>
  <symbol id="atomic__minus-circle-solid" viewBox="0 0 24 24">
    <path d="M12 1C5.9 1 1 5.9 1 12s4.9 11 11 11 11-4.9 11-11S18.1 1 12 1zm5 12H7v-2h10v2z"/>
  </symbol>
  <symbol id="atomic__minus-circle" viewBox="0 0 24 24">
    <path d="M12 21c5 0 9-4 9-9s-4-9-9-9-9 4-9 9 4 9 9 9zm0-20c6.1 0 11 4.9 11 11s-4.9 11-11 11S1 18.1 1 12 5.9 1 12 1z"/>
    <path d="M7 11h10v2H7z"/>
  </symbol>
  <symbol id="atomic__plus-circle-solid" viewBox="0 0 24 24">
    <path d="M17 13h-4v4h-2v-4H7v-2h4V7h2v4h4v2zM12 1C5.9 1 1 5.9 1 12s4.9 11 11 11 11-4.9 11-11S18.1 1 12 1z"/>
  </symbol>
  <symbol id="atomic__plus_circle" viewBox="0 0 24 24">
    <path d="M12 21c5 0 9-4 9-9s-4-9-9-9-9 4-9 9 4 9 9 9zm0-20c6.1 0 11 4.9 11 11s-4.9 11-11 11S1 18.1 1 12 5.9 1 12 1z"/>
    <path d="M17 11v2h-4v4h-2v-4H7v-2h4V7h2v4z"/>
  </symbol>
  <symbol id="atomic__search-solid" viewBox="0 0 24 24">
    <path d="M10 15.5c3 0 5.5-2.5 5.5-5.5S13 4.5 10 4.5 4.5 7 4.5 10 7 15.5 10 15.5zm6.5-.8 5.6 5.6-1.8 1.7-5.6-5.6c-1.3 1-2.9 1.5-4.7 1.5-4.4 0-8-3.6-8-8s3.6-8 8-8 8 3.6 8 8c0 1.9-.6 3.5-1.5 4.8z"/>
  </symbol>
  <symbol id="atomic__search" viewBox="0 0 24 24">
    <path d="m21.9 20.4-5.5-5.5c1.1-1.4 1.7-3.1 1.7-4.9 0-4.4-3.6-8-8-8s-8 3.6-8 8 3.6 8 8 8c1.8 0 3.5-.6 4.9-1.7l5.5 5.5 1.4-1.4zM10 16c-3.3 0-6-2.7-6-6s2.7-6 6-6 6 2.7 6 6-2.7 6-6 6z"/>
  </symbol>
  <symbol id="atomic__share-solid" viewBox="0 0 24 24">
    <path d="m7.9 9.4 7.2-4.2c-.1-.2-.1-.5-.1-.7C15 2.6 16.6 1 18.5 1S22 2.6 22 4.5 20.4 8 18.5 8c-1 0-1.8-.4-2.5-1l-7.1 4.1c.1.3.1.6.1.9 0 .3 0 .6-.1.9L16 17c.6-.7 1.5-1.1 2.5-1.1 1.9 0 3.5 1.6 3.5 3.5S20.4 23 18.5 23 15 21.4 15 19.5c0-.2 0-.4.1-.7l-7.3-4.2c-.6.5-1.4.9-2.3.9C3.6 15.5 2 13.9 2 12s1.6-3.5 3.5-3.5c.9 0 1.7.3 2.4.9z"/>
  </symbol>
  <symbol id="atomic__share" viewBox="0 0 24 24">
    <path d="m15.1 18.8-7.3-4.2c-.6.5-1.4.9-2.3.9C3.6 15.5 2 13.9 2 12s1.6-3.5 3.5-3.5c.9 0 1.7.3 2.4.9l7.2-4.2c-.1-.2-.1-.5-.1-.7C15 2.6 16.6 1 18.5 1S22 2.6 22 4.5 20.4 8 18.5 8c-1 0-1.8-.4-2.5-1l-7.1 4.1c.1.3.1.6.1.9 0 .3 0 .6-.1.9L16 17c.6-.7 1.5-1.1 2.5-1.1 1.9 0 3.5 1.6 3.5 3.5S20.4 23 18.5 23 15 21.4 15 19.5c0-.2 0-.4.1-.7zm-9.6-5.3c.8 0 1.5-.7 1.5-1.5s-.7-1.5-1.5-1.5S4 11.2 4 12s.7 1.5 1.5 1.5zm13-7.5c.8 0 1.5-.7 1.5-1.5S19.3 3 18.5 3 17 3.7 17 4.5 17.7 6 18.5 6zm0 15c.8 0 1.5-.7 1.5-1.5s-.7-1.5-1.5-1.5-1.5.7-1.5 1.5.7 1.5 1.5 1.5z"/>
  </symbol>
  <symbol id="atomic__smile" viewBox="0 0 24 24">
    <path d="M12 22C6.5 22 2 17.5 2 12S6.5 2 12 2s10 4.5 10 10-4.5 10-10 10zm0-18c-4.4 0-8 3.6-8 8s3.6 8 8 8 8-3.6 8-8-3.6-8-8-8z"/>
    <path d="M12 16c-2.3 0-4.4-1.6-4.9-3.8l1.9-.5c.4 1.4 1.6 2.3 3 2.3s2.5-.9 2.9-2.3l1.9.6c-.6 2.2-2.5 3.7-4.8 3.7z"/>
    <circle cx="8.5" cy="8.5" r="1.5"/>
    <circle cx="15.5" cy="8.5" r="1.5"/>
  </symbol>
  <symbol id="atomic__star" viewBox="0 0 24 24">
    <path d="m8.6 7.7 2.1-4.9c.3-.7 1.1-1 1.9-.7.3.1.6.4.7.7l2.1 4.9 5.3.5c.4 0 .7.2.9.5.5.6.4 1.5-.1 2l-4 3.5 1.2 5.2c.1.4 0 .7-.2 1-.4.7-1.3.9-1.9.5L12 18.1l-4.6 2.7c-.3.2-.7.2-1 .2-.8-.2-1.2-.9-1-1.7l1.2-5.2-4-3.5c-.6-.5-.7-1.4-.2-2 .2-.3.6-.5 1-.5l5.2-.4zm3.4-3L9.9 9.5l-5.2.5 4 3.4-1.2 5.1 4.5-2.7 4.5 2.7-1.2-5.1 4-3.4-5.2-.4L12 4.7z"/>
  </symbol>
  <symbol id="atomic__start-solid" viewBox="0 0 24 24">
    <path d="m8.7 7.8 2.1-5c.3-.7 1.1-1 1.8-.7.3.1.6.4.7.7l2.1 5 5.4.5c.3 0 .7.2.9.4.5.5.4 1.4-.1 1.8l-4.1 3.6 1.2 5.3c.1.3 0 .7-.2 1-.4.6-1.2.8-1.8.4L12 18l-4.7 2.8c-.3.2-.6.2-1 .2-.7-.2-1.2-.9-1-1.6l1.2-5.3-4.1-3.6c-.2-.2-.4-.5-.4-.8-.1-.8.5-1.4 1.2-1.5l5.5-.4z"/>
  </symbol>
</svg>
